<svg xmlns="http://www.w3.org/2000/svg" xmlns:xlink="http://www.w3.org/1999/xlink" version="1.1" id="Layer_1" x="0px" y="0px" viewBox="0 0 923 513" style="enable-background:new 0 0 923 513;" xml:space="preserve">
<rect style="fill:#FFFFFF;" width="923" height="513"/>
<g>
	<path style="fill:none;stroke:#000000;stroke-miterlimit:10;" d="M261.857,175.225"/>
	
		<polygon style="fill:none;stroke:#000000;stroke-width:4;stroke-linecap:round;stroke-linejoin:round;stroke-miterlimit:10;" points="   261.857,175.225 316.284,139.082 354.553,131.003 567.586,131.003 605.43,139.082 659.857,175.225 659.857,189.257    567.586,332.129 460.857,432.905 354.553,332.129 261.857,189.257  "/>
	
		<rect x="261.857" y="175.225" style="fill:none;stroke:#000000;stroke-width:4;stroke-linecap:round;stroke-linejoin:round;stroke-miterlimit:10;" width="398" height="14.032"/>
	
		<polygon style="fill:none;stroke:#000000;stroke-width:4;stroke-linecap:round;stroke-linejoin:round;stroke-miterlimit:10;" points="   354.553,131.003 285.549,159.492 636.165,159.492 567.586,131.003  "/>
	
		<polygon style="fill:none;stroke:#000000;stroke-width:4;stroke-linecap:round;stroke-linejoin:round;stroke-miterlimit:10;" points="   339.246,159.492 460.857,131.003 582.893,159.492  "/>
	<path style="fill:none;stroke:#000000;stroke-width:4;stroke-linecap:round;stroke-linejoin:round;stroke-miterlimit:10;" d="   M339.246,159.492"/>
	
		<polygon style="fill:none;stroke:#000000;stroke-width:4;stroke-linecap:round;stroke-linejoin:round;stroke-miterlimit:10;" points="   339.246,159.492 327.765,175.225 327.765,189.257 339.246,242.409 401.327,287.907 461.07,311.719 520.812,287.907    582.893,242.409 598.626,189.257 598.626,175.225 582.893,159.492  "/>
	
		<line style="fill:none;stroke:#000000;stroke-width:4;stroke-linecap:round;stroke-linejoin:round;stroke-miterlimit:10;" x1="461.07" y1="311.719" x2="460.857" y2="432.905"/>
	
		<polygon style="fill:none;stroke:#000000;stroke-width:4;stroke-linecap:round;stroke-linejoin:round;stroke-miterlimit:10;" points="   460.857,398.141 401.327,287.907 339.246,242.409 327.765,259.736  "/>
	
		<polygon style="fill:none;stroke:#000000;stroke-width:4;stroke-linecap:round;stroke-linejoin:round;stroke-miterlimit:10;" points="   461.07,398.141 520.599,287.907 582.681,242.409 594.161,259.736  "/>
	
		<polygon style="fill:none;stroke:#000000;stroke-width:4;stroke-linecap:round;stroke-linejoin:round;stroke-miterlimit:10;" points="   303.022,252.704 327.765,259.736 386.532,362.445 354.553,332.129  "/>
	
		<polygon style="fill:none;stroke:#000000;stroke-width:4;stroke-linecap:round;stroke-linejoin:round;stroke-miterlimit:10;" points="   618.802,252.826 594.325,259.783 535.557,362.491 567.536,332.175  "/>
</g>

<g>
	<g>
		<line style="fill:none;stroke:#000000;stroke-width:2;stroke-miterlimit:10;" x1="354.96" y1="112" x2="566.625" y2="112"/>
		<g>
			<rect x="354" y="105.76" width="1.92" height="12.48"/>
		</g>
		<g>
			<rect x="565.666" y="105.76" width="1.92" height="12.48"/>
		</g>
	</g>
</g>
<g>
	<g>
		<line style="fill:none;stroke:#000000;stroke-width:2;stroke-miterlimit:10;" x1="262.817" y1="75" x2="658.897" y2="75"/>
		<g>
			<rect x="261.857" y="68.76" width="1.92" height="12.48"/>
		</g>
		<g>
			<rect x="657.937" y="68.76" width="1.92" height="12.48"/>
		</g>
	</g>
</g>

<g>
	<g>
		
			<line style="fill:none;stroke:#000000;stroke-width:2;stroke-miterlimit:10;" x1="716.68" y1="174.265" x2="716.68" y2="130.612"/>
		<g>
			<rect x="710.44" y="173.305" width="12.48" height="1.92"/>
		</g>
		<g>
			<rect x="710.44" y="129.652" width="12.48" height="1.92"/>
		</g>
	</g>
</g>
<g>
	<g>
		
			<line style="fill:none;stroke:#000000;stroke-width:2;stroke-miterlimit:10;" x1="716.68" y1="429.047" x2="716.68" y2="190.217"/>
		<g>
			<rect x="710.44" y="428.087" width="12.48" height="1.92"/>
		</g>
		<g>
			<rect x="710.44" y="189.257" width="12.48" height="1.92"/>
		</g>
	</g>
</g>

<g>
	<g>
		
			<line style="fill:none;stroke:#000000;stroke-width:2;stroke-miterlimit:10;" x1="248.101" y1="431.37" x2="248.101" y2="130.612"/>
		<g>
			<rect x="241.861" y="430.41" width="12.48" height="1.92"/>
		</g>
		<g>
			<rect x="241.861" y="129.652" width="12.48" height="1.92"/>
		</g>
	</g>
</g>
<text id="SVG_crown_pre" style="font-size: 28px;" transform="matrix(1 0 0 1 725.6797 150)"  >13.0 %</text>
<text id="SVG_crown_mm" style="font-size: 28px;" transform="matrix(1 0 0 1 725.6797 178)">0.86 mm</text>
<text id="SVG_pavillion_pre" style="font-size: 28px;" transform="matrix(1 0 0 1 725.6797 317.6032)">43.5 %</text>
<text id="SVG_pavillion_mm" style="font-size: 28px;" transform="matrix(1 0 0 1 725.6797 346)">2.85 mm</text>
<text id="SVG_culet_mm" style="font-size: 28px;" transform="matrix(1 0 0 1 424.6157 474.7579)">0.14%</text>
<text id="SVG_width_mm" style="font-size: 28px;" transform="matrix(1 0 0 1 405.812 62.0989)">6.59 mm</text>
<text id="SVG_table_pre" style="font-size: 28px;" transform="matrix(1 0 0 1 414.8125 105.9998)">59.0 %</text>
<text id="SVG_pavillion_rounded" style="font-size: 28px;" transform="matrix(1 0 0 1 642.6279 317.6032)">41.0˚</text>
<text id="SVG_crown_rounded" style="font-size: 28px;" transform="matrix(1 0 0 1 642.6277 159.4922)">32.5˚</text>
<text id="SVG_total_depth_per" style="font-size: 28px;" transform="matrix(1 0 0 1 146.1042 388.0997)">59.5 %</text>
<text id="SVG_total_depth_mm" style="font-size: 28px;" transform="matrix(1 0 0 1 120.1042 416)">3.92 mm</text>
<text id="SVG_girdle_pre" style="font-size: 28px;" transform="matrix(1 0 0 1 161.4934 176.6825)">3.0 %</text>
<text id="SVG_girdle_mm" style="font-size: 28px;" transform="matrix(1 0 0 1 120.4934 204.6825)">0.21 mm</text>


<line style="fill:none;stroke:#000000;stroke-width:2;stroke-linecap:round;stroke-miterlimit:10;" x1="231.602" y1="168.66" x2="239.525" y2="176.583"/>
<line style="fill:none;stroke:#000000;stroke-width:2;stroke-linecap:round;stroke-miterlimit:10;" x1="231.602" y1="197.246" x2="239.525" y2="189.322"/>
</svg>
