<?xml version="1.0" encoding="iso-8859-1"?>
<!-- Generator: Adobe Illustrator 18.1.1, SVG Export Plug-In . SVG Version: 6.00 Build 0)  -->
<svg version="1.1" id="Layer_1" xmlns="http://www.w3.org/2000/svg" xmlns:xlink="http://www.w3.org/1999/xlink" x="0px" y="0px"
	 viewBox="0 0 923 513" style="enable-background:new 0 0 923 513;" xml:space="preserve">

<rect style="fill:#FFFFFF;" width="923" height="513"/>
<g>
	
		<polygon style="fill:none;stroke:#000000;stroke-width:4;stroke-linecap:round;stroke-linejoin:round;stroke-miterlimit:10;" points="
		312.317,128.659 611.678,128.659 714.998,221.381 714.998,231.316 483.854,430.007 440.142,430.007 208.998,231.316 
		208.998,221.381 	"/>
	
		<line style="fill:none;stroke:#000000;stroke-width:4;stroke-linecap:round;stroke-linejoin:round;stroke-miterlimit:10;" x1="208.998" y1="221.381" x2="714.998" y2="221.381"/>
	
		<line style="fill:none;stroke:#000000;stroke-width:4;stroke-linecap:round;stroke-linejoin:round;stroke-miterlimit:10;" x1="208.998" y1="231.316" x2="714.998" y2="231.316"/>
	
		<polygon style="fill:none;stroke:#000000;stroke-width:4;stroke-linecap:round;stroke-linejoin:round;stroke-miterlimit:10;" points="
		312.317,128.659 284.5,170.384 318.609,221.381 370.269,163.099 	"/>
	
		<polygon style="fill:none;stroke:#000000;stroke-width:4;stroke-linecap:round;stroke-linejoin:round;stroke-miterlimit:10;" points="
		611.678,128.659 639.495,170.384 605.386,221.381 553.727,163.099 	"/>
	
		<polygon style="fill:none;stroke:#000000;stroke-width:4;stroke-linecap:round;stroke-linejoin:round;stroke-miterlimit:10;" points="
		461.998,128.659 553.727,163.099 461.998,221.381 370.269,163.099 	"/>
	<path style="fill:none;stroke:#000000;stroke-width:4;stroke-linecap:round;stroke-linejoin:round;stroke-miterlimit:10;" d="
		M284.5,170.384"/>
	
		<polygon style="fill:none;stroke:#000000;stroke-width:4;stroke-linecap:round;stroke-linejoin:round;stroke-miterlimit:10;" points="
		284.5,170.384 258.339,221.381 208.998,221.381 	"/>
	
		<polygon style="fill:none;stroke:#000000;stroke-width:4;stroke-linecap:round;stroke-linejoin:round;stroke-miterlimit:10;" points="
		639.495,170.384 665.656,221.381 714.998,221.381 	"/>
	
		<line style="fill:none;stroke:#000000;stroke-width:4;stroke-linecap:round;stroke-linejoin:round;stroke-miterlimit:10;" x1="461.998" y1="221.381" x2="461.998" y2="430.007"/>
	
		<polygon style="fill:none;stroke:#000000;stroke-width:4;stroke-linecap:round;stroke-linejoin:round;stroke-miterlimit:10;" points="
		318.609,231.316 461.998,388.282 604.834,231.316 522.267,377.023 483.854,430.007 440.142,430.007 401.286,377.023 	"/>
	
		<polygon style="fill:none;stroke:#000000;stroke-width:4;stroke-linecap:round;stroke-linejoin:round;stroke-miterlimit:10;" points="
		258.339,231.316 401.286,377.023 208.998,231.316 	"/>
	
		<polygon style="fill:none;stroke:#000000;stroke-width:4;stroke-linecap:round;stroke-linejoin:round;stroke-miterlimit:10;" points="
		665.215,231.316 522.267,377.023 714.556,231.316 	"/>
</g>
<g>
	<g>
		<line style="fill:none;stroke:#000000;stroke-width:2;stroke-miterlimit:10;" x1="313.277" y1="112" x2="610.718" y2="112"/>
		<g>
			<rect x="312.317" y="105.76" width="1.92" height="12.48"/>
		</g>
		<g>
			<rect x="609.758" y="105.76" width="1.92" height="12.48"/>
		</g>
	</g>
</g>
<g>
	<g>
		
			<line style="fill:none;stroke:#000000;stroke-width:2;stroke-miterlimit:10;" x1="193.153" y1="431.37" x2="193.153" y2="130.612"/>
		<g>
			<rect x="186.913" y="430.41" width="12.48" height="1.92"/>
		</g>
		<g>
			<rect x="186.913" y="129.652" width="12.48" height="1.92"/>
		</g>
	</g>
</g>
<g>
	<g>
		
			<line style="fill:none;stroke:#000000;stroke-width:2;stroke-miterlimit:10;" x1="746.625" y1="220.421" x2="746.625" y2="130.612"/>
		<g>
			<rect x="740.385" y="219.461" width="12.48" height="1.92"/>
		</g>
		<g>
			<rect x="740.385" y="129.652" width="12.48" height="1.92"/>
		</g>
	</g>
</g>
<g>
	<g>
		
			<line style="fill:none;stroke:#000000;stroke-width:2;stroke-miterlimit:10;" x1="746.625" y1="429.047" x2="746.625" y2="232.276"/>
		<g>
			<rect x="740.385" y="428.087" width="12.48" height="1.92"/>
		</g>
		<g>
			<rect x="740.385" y="231.316" width="12.48" height="1.92"/>
		</g>
	</g>
</g>
<g>
	<g>
		<line style="fill:none;stroke:#000000;stroke-width:2;stroke-miterlimit:10;" x1="209.958" y1="75" x2="714.038" y2="75"/>
		<g>
			<rect x="208.998" y="68.76" width="1.92" height="12.48"/>
		</g>
		<g>
			<rect x="713.078" y="68.76" width="1.92" height="12.48"/>
		</g>
	</g>
</g>
<text id="SVG_culet_mm" transform="matrix(1 0 0 1 422.6155 474.7579)" style="font-size:28px;">0.14%</text>
<text id="SVG_table_pre" transform="matrix(1 0 0 1 406.1435 62.0989)" style="font-size:28px;">6.59 mm</text>
<text id="SVG_table_mm" transform="matrix(1 0 0 1 415.1441 105.9998)" style="font-size:28px;">59.0 %</text>
<text id="SVG_pavillion_rounded" transform="matrix(1 0 0 1 662.6758 317.6032)" style="font-size:28px;">41.0&#x2DA;</text>
<text id="SVG_crown_rounded" transform="matrix(1 0 0 1 662.6757 159.4922)" style="font-size:28px;">32.5&#x2DA;</text>
<text id="SVG_crown_pre" transform="matrix(1 0 0 1 755.6249 149.4916)" style="font-size:28px;">13.0 %</text>
<text id="SVG_crown_mm" transform="matrix(1 0 0 1 755.6249 149.4916)" x="0" y="28" style="font-size:28px;">0.86 mm</text>
<text id="SVG_pavillion_pre" transform="matrix(1 0 0 1 755.6249 317.6032)" style="font-size:28px;">43.5 %</text>
<text id="SVG_pavillion_mm" transform="matrix(1 0 0 1 755.6249 317.6032)"  x="0" y="28" style="font-size:28px;">2.85 mm</text>
<text id="SVG_total_depth_pre" transform="matrix(1 0 0 1 91.156 388.0997)" x="0" y="0" style="font-size:28px;">59.5 %</text>
<text id="SVG_total_depth_mm" transform="matrix(1 0 0 1 91.156 388.0997)" x="-26.28" y="28" style="font-size:28px;">3.92 mm</text>
<text id="SVG_girdle_pre" transform="matrix(1 0 0 1 106.5452 220.0993)" style="font-size:28px;">3.0 %</text>
<text id="SVG_girdle_mm" transform="matrix(1 0 0 1 106.5452 220.0993)" x="-41.669" y="28" style="font-size:28px;">0.21 mm</text>
<line style="fill:none;stroke:#000000;stroke-width:2;stroke-linecap:round;stroke-miterlimit:10;" x1="176.654" y1="212.077" x2="184.577" y2="220"/>
<line style="fill:none;stroke:#000000;stroke-width:2;stroke-linecap:round;stroke-miterlimit:10;" x1="176.654" y1="239.239" x2="184.577" y2="231.316"/>

</svg>
