<?xml version="1.0" encoding="iso-8859-1"?>
<!-- Generator: Adobe Illustrator 18.1.1, SVG Export Plug-In . SVG Version: 6.00 Build 0)  -->
<svg version="1.1" id="Layer_1" xmlns="http://www.w3.org/2000/svg" xmlns:xlink="http://www.w3.org/1999/xlink" x="0px" y="0px"
	 viewBox="0 0 923 513" style="enable-background:new 0 0 923 513;" xml:space="preserve">
<rect style="fill:#FFFFFF;" width="923" height="513"/>
<g>
	
		<polygon style="fill:none;stroke:#000000;stroke-width:4;stroke-linecap:round;stroke-linejoin:round;stroke-miterlimit:10;" points="
		200,177.296 270.44,130.336 649.556,130.336 719.996,177.296 719.996,189.322 659.291,291.26 524.138,398.924 459.998,432.33 
		395.858,400.26 260.705,291.26 200,189.322 	"/>
	
		<polygon style="fill:none;stroke:#000000;stroke-width:4;stroke-linecap:round;stroke-linejoin:round;stroke-miterlimit:10;" points="
		200,189.322 719.996,189.322 459.998,317.603 	"/>
	
		<polygon style="fill:none;stroke:#000000;stroke-width:4;stroke-linecap:round;stroke-linejoin:round;stroke-miterlimit:10;" points="
		200,177.296 719.996,177.296 459.998,130.336 	"/>
	
		<polyline style="fill:none;stroke:#000000;stroke-width:4;stroke-linecap:round;stroke-linejoin:round;stroke-miterlimit:10;" points="
		693.652,159.734 610.613,130.336 610.613,157.443 308.81,157.443 310.337,130.336 226.344,159.734 	"/>
	
		<polygon style="fill:none;stroke:#000000;stroke-width:4;stroke-linecap:round;stroke-linejoin:round;stroke-miterlimit:10;" points="
		200,189.322 459.998,343.374 459.998,388.616 	"/>
	
		<polygon style="fill:none;stroke:#000000;stroke-width:4;stroke-linecap:round;stroke-linejoin:round;stroke-miterlimit:10;" points="
		720.033,189.322 460.036,343.374 460.036,388.616 	"/>
	
		<line style="fill:none;stroke:#000000;stroke-width:4;stroke-linecap:round;stroke-linejoin:round;stroke-miterlimit:10;" x1="395.858" y1="400.26" x2="200" y2="189.322"/>
	
		<line style="fill:none;stroke:#000000;stroke-width:4;stroke-linecap:round;stroke-linejoin:round;stroke-miterlimit:10;" x1="524.138" y1="398.924" x2="720.033" y2="189.322"/>
	
		<line style="fill:none;stroke:#000000;stroke-width:4;stroke-linecap:round;stroke-linejoin:round;stroke-miterlimit:10;" x1="459.998" y1="317.603" x2="459.998" y2="432.33"/>
</g>
<g>
	<g>
		<line style="fill:none;stroke:#000000;stroke-width:2;stroke-miterlimit:10;" x1="271.4" y1="112" x2="648.596" y2="112"/>
		<g>
			<rect x="270.44" y="105.76" width="1.92" height="12.48"/>
		</g>
		<g>
			<rect x="647.636" y="105.76" width="1.92" height="12.48"/>
		</g>
	</g>
</g>
<g>
	<g>
		<line style="fill:none;stroke:#000000;stroke-width:2;stroke-miterlimit:10;" x1="200.96" y1="75" x2="719.036" y2="75"/>
		<g>
			<rect x="200" y="68.76" width="1.92" height="12.48"/>
		</g>
		<g>
			<rect x="718.076" y="68.76" width="1.92" height="12.48"/>
		</g>
	</g>
</g>
<g>
	<g>
		
			<line style="fill:none;stroke:#000000;stroke-width:2;stroke-miterlimit:10;" x1="777.628" y1="176.336" x2="777.628" y2="130.612"/>
		<g>
			<rect x="771.388" y="175.376" width="12.48" height="1.92"/>
		</g>
		<g>
			<rect x="771.388" y="129.652" width="12.48" height="1.92"/>
		</g>
	</g>
</g>
<g>
	<g>
		
			<line style="fill:none;stroke:#000000;stroke-width:2;stroke-miterlimit:10;" x1="777.628" y1="429.047" x2="777.628" y2="190.283"/>
		<g>
			<rect x="771.388" y="428.087" width="12.48" height="1.92"/>
		</g>
		<g>
			<rect x="771.388" y="189.323" width="12.48" height="1.92"/>
		</g>
	</g>
</g>
<g>
	<g>
		
			<line style="fill:none;stroke:#000000;stroke-width:2;stroke-miterlimit:10;" x1="189.048" y1="431.37" x2="189.048" y2="130.612"/>
		<g>
			<rect x="182.808" y="430.41" width="12.48" height="1.92"/>
		</g>
		<g>
			<rect x="182.808" y="129.652" width="12.48" height="1.92"/>
		</g>
	</g>
</g>
<line style="fill:none;stroke:#000000;stroke-width:2;stroke-linecap:round;stroke-miterlimit:10;" x1="172.549" y1="168.66" x2="180.472" y2="176.583"/>
<line style="fill:none;stroke:#000000;stroke-width:2;stroke-linecap:round;stroke-miterlimit:10;" x1="172.549" y1="197.246" x2="180.472" y2="189.322"/>


<text id="SVG_culet_mm" style="font-size: 28px;" transform="matrix(1 0 0 1 424.615 474.7579)">0.14%</text>
<text id="SVG_width_mm" style="font-size: 28px;" transform="matrix(1 0 0 1 405.2609 62.0989)">6.59 mm</text>
<text id="SVG_table_pre" style="font-size:28px;" transform="matrix(1 0 0 1 415.1441 105.9998)">59.0 %</text>
<text id="SVG_pavillion_rounded" style="font-size: 28px;" transform="matrix(1 0 0 1 706.5757 317.6032)">41.0</text>
<text id="SVG_crown_rounded" style="font-size: 28px;" transform="matrix(1 0 0 1 706.5754 159.4922)">32.5</text>
<text id="SVG_crown_pre" style="font-size: 28px;" transform="matrix(1 0 0 1 786.6277 149.4916)"  >13.0 %</text>
<text id="SVG_crown_mm" style="font-size: 28px;" transform="matrix(1 0 0 1 786.6277 178)">0.86 mm</text>
<text id="SVG_pavillion_pre" style="font-size: 28px;" transform="matrix(1 0 0 1 786.6277 317.6032)">43.5 %</text>
<text id="SVG_pavillion_mm" style="font-size: 28px;" transform="matrix(1 0 0 1 786.6277 345.6032)">2.85 mm</text>
<text id="SVG_total_depth_mm" style="font-size: 28px;" transform="matrix(1 0 0 1 87.0515 388.0997)">59.0 %</text>
<text id="SVG_total_depth_per" style="font-size: 28px;" transform="matrix(1 0 0 1 61.0515 416.0997)">3.92 mm</text>
<text id="SVG_girdle_pre" style="font-size: 28px;" transform="matrix(1 0 0 1 102.4407 176.6825)">3.0 %</text>
<text id="SVG_girdle_mm" style="font-size: 28px;" transform="matrix(1 0 0 1 65.4934 205.6825)">0.21 mm</text>
</svg>
