<?xml version="1.0" encoding="utf-8"?>
<!-- Generator: Adobe Illustrator 18.1.1, SVG Export Plug-In . SVG Version: 6.00 Build 0)  -->
<svg version="1.1" id="Layer_1" xmlns="http://www.w3.org/2000/svg" xmlns:xlink="http://www.w3.org/1999/xlink" x="0px" y="0px"
	 viewBox="0 0 792 612" enable-background="new 0 0 792 612" xml:space="preserve">
<path id="svg_35" fill="none" stroke="#0D0A0A" stroke-linecap="round" stroke-linejoin="round" stroke-miterlimit="10" d="
	M274.8,170.9"/>
<line id="svg_136" fill="none" stroke="#0D0A0A" stroke-width="2" stroke-linecap="round" stroke-linejoin="round" x1="140.5" y1="192.7" x2="140.5" y2="437.8"/>
<rect id="svg_137" x="138.6" y="192.4" fill="#EF4966" stroke="#0D0A0A" stroke-miterlimit="10" width="3.8" height="0.6"/>
<rect id="svg_138" x="138.6" y="437.5" fill="#EF4966" stroke="#0D0A0A" stroke-miterlimit="10" width="3.8" height="0.6"/>
<line id="svg_139" fill="none" stroke="#0D0A0A" stroke-width="2" stroke-linecap="round" stroke-linejoin="round" x1="665" y1="253.8" x2="665" y2="437.8"/>
<rect id="svg_140" x="663.1" y="253.5" fill="#EF4966" stroke="#0D0A0A" stroke-miterlimit="10" width="3.8" height="0.6"/>
<rect id="svg_141" x="663.1" y="437.5" fill="#EF4966" stroke="#0D0A0A" stroke-miterlimit="10" width="3.8" height="0.6"/>
<line id="svg_142" fill="none" stroke="#0D0A0A" stroke-width="2" stroke-linecap="round" stroke-linejoin="round" x1="665" y1="193.6" x2="665" y2="243.5"/>
<rect id="svg_143" x="663.1" y="193.2" fill="#EF4966" stroke="#0D0A0A" stroke-miterlimit="10" width="3.8" height="0.6"/>
<rect id="svg_144" x="663.1" y="243.2" fill="#EF4966" stroke="#0D0A0A" stroke-miterlimit="10" width="3.8" height="0.6"/>
<line id="svg_145" fill="none" stroke="#0D0A0A" stroke-width="2" stroke-linecap="round" stroke-linejoin="round" x1="232.3" y1="161.8" x2="563" y2="161.8"/>
<rect id="svg_146" x="231.9" y="160" fill="#EF4966" stroke="#0D0A0A" stroke-miterlimit="10" width="0.6" height="3.8"/>
<g>
	<g>
		<rect id="svg_147" x="562.7" y="160" fill="#EF4966" stroke="#0D0A0A" stroke-miterlimit="10" width="0.6" height="3.8"/>
	</g>
</g>
<g>
	<g>
		
			<line id="svg_188" fill="none" stroke="#0D0A0A" stroke-width="2" stroke-linecap="round" stroke-linejoin="round" x1="146.8" y1="142.9" x2="645" y2="142.9"/>
	</g>
</g>
<g>
	<g>
		<rect id="svg_189" x="146.4" y="138" fill="#010101" stroke="#0D0A0A" stroke-miterlimit="10" width="0.6" height="9.6"/>
	</g>
</g>
<line id="svg_253" fill="none" stroke="#0D0A0A" stroke-width="2" stroke-linecap="round" stroke-linejoin="round" stroke-miterlimit="10" x1="131.9" y1="237.3" x2="137.9" y2="241.4"/>
<line id="svg_254" fill="none" stroke="#0D0A0A" stroke-width="2" stroke-linecap="round" stroke-linejoin="round" stroke-miterlimit="10" x1="132.5" y1="260.4" x2="137.9" y2="255.3"/>
<polyline id="svg_255" fill="none" stroke="#0D0A0A" stroke-width="2" stroke-linecap="round" stroke-linejoin="round" stroke-miterlimit="10" points="
	654,254 658.9,254 635.3,274 "/>
<g>
	
		<polyline id="svg_256" fill="none" stroke="#0D0A0A" stroke-width="2" stroke-linecap="round" stroke-linejoin="round" stroke-miterlimit="10" points="
		654,243.1 658.9,243.1 635.3,226.1 	"/>
</g>
<g>
	<g>
		<rect id="svg_189_1_" x="645" y="138.1" fill="#010101" stroke="#0D0A0A" stroke-miterlimit="10" width="0.6" height="9.6"/>
	</g>
</g>
<text id="SVG_width_mm" transform="matrix(1 0 0 1 354.9952 126.725)" font-family="'ArialMT'" font-size="19.25">6.59mm</text>
<text id="SVG_table_pre" transform="matrix(1 0 0 1 369.7706 159.725)" font-family="'ArialMT'" font-size="17.875">59.0%</text>
<text id="SVG_crown_pre" transform="matrix(1 0 0 1 677.7109 197.5375)" font-family="'ArialMT'" font-size="19.25">13.0%</text>
<text id="SVG_crown_mm" transform="matrix(1 0 0 1 677.7109 223.6624)" font-family="'ArialMT'" font-size="19.25">0.86mm</text>
<text id="SVG_pavillion_pre" transform="matrix(1 0 0 1 677.7109 357.0375)" font-family="'ArialMT'" font-size="19.25">43.5%</text>
<text id="SVG_pavillion_mm" transform="matrix(1 0 0 1 677.7109 383.1625)" font-family="'ArialMT'" font-size="19.25">2.85mm</text>
<text id="SVG_girdle_pre" transform="matrix(1 0 0 1 71.3243 242.2249)" font-family="'ArialMT'" font-size="19.25">3.0%</text>
<text id="SVG_girdle_mm" transform="matrix(1 0 0 1 45.6719 268.35)" font-family="'ArialMT'" font-size="19.25">0.21mm</text>
<text id="SVG_culet_mm" transform="matrix(1 0 0 1 367.8214 464.9749)" font-family="'ArialMT'" font-size="19.25">0.14%</text>
<text id="SVG_crown_rounded" transform="matrix(1 0 0 1 616.6084 207.5981)" font-family="'ArialMT'" font-size="19.25">32.5°</text>
<text id="SVG_pavillion_rounded" transform="matrix(1 0 0 1 598.8955 328.5062)" font-family="'ArialMT'" font-size="19.25">41.0°</text>
<text id="SVG_total_depth_per" transform="matrix(1 0 0 1 50.7051 390.7249)" font-family="'ArialMT'" font-size="19.25">3.92mm</text>
<text id="SVG_total_depth_mm" transform="matrix(1 0 0 1 50.7051 418.225)" font-family="'ArialMT'" font-size="19.25">59.5%</text>
<g>
</g>
<rect x="1785.3" y="309.1" fill="#FFFFFF" width="432.4" height="273.3"/>
<rect x="1072.9" y="166.5" fill="#FFFFFF" stroke="#231F20" stroke-miterlimit="10" width="497.3" height="23.2"/>
<g>
	
		<rect x="148.9" y="244.2" fill="none" stroke="#231F20" stroke-width="4" stroke-linejoin="round" stroke-miterlimit="10" width="495.1" height="9"/>
	<polygon fill="none" stroke="#231F20" stroke-width="4" stroke-linejoin="round" stroke-miterlimit="10" points="327.4,436 
		465.1,436 510.4,394.9 578.8,337.3 644,253.2 644,244.2 630.1,227 602.3,202.7 563.1,194.5 229.3,194.4 190.9,203.1 161.9,227 
		148.9,244.2 148.9,253.2 214.8,337.3 281.9,395 	"/>
	
		<line fill="none" stroke="#231F20" stroke-width="4" stroke-linejoin="round" stroke-miterlimit="10" x1="190.9" y1="203.1" x2="602.3" y2="203.1"/>
	
		<line fill="none" stroke="#231F20" stroke-width="4" stroke-linejoin="round" stroke-miterlimit="10" x1="161.9" y1="227" x2="630.1" y2="227"/>
	
		<line fill="none" stroke="#231F20" stroke-width="4" stroke-linejoin="round" stroke-miterlimit="10" x1="214.8" y1="337.3" x2="578.8" y2="337.3"/>
	
		<line fill="none" stroke="#231F20" stroke-width="4" stroke-linejoin="round" stroke-miterlimit="10" x1="281.9" y1="395" x2="510.4" y2="394.9"/>
	<polyline fill="none" stroke="#231F20" stroke-width="4" stroke-linejoin="round" stroke-miterlimit="10" points="465.1,436 
		498.2,394.8 541.1,337.3 585.7,253.6 585.7,244.2 582.4,227.3 567.8,203 563.1,194.5 	"/>
	<polyline fill="none" stroke="#231F20" stroke-width="4" stroke-linejoin="round" stroke-miterlimit="10" points="327.5,436 
		294.5,394.8 251.6,337.3 206.9,253.6 206.9,244.2 210.2,227.3 224.8,203 229.5,194.5 	"/>
</g>
</svg>
