<?xml version="1.0" encoding="utf-8"?>
<!-- Generator: Adobe Illustrator 18.1.1, SVG Export Plug-In . SVG Version: 6.00 Build 0)  -->
<svg version="1.1" id="Layer_1" xmlns="http://www.w3.org/2000/svg" xmlns:xlink="http://www.w3.org/1999/xlink" x="0px" y="0px"
	 viewBox="0 0 730 530" enable-background="new 0 0 730 530" xml:space="preserve">
<path id="svg_3" fill="#FFFFFF" stroke="#0D0A0A" stroke-miterlimit="10" d="M502,177.9"/>
<path id="svg_35" fill="none" stroke="#0D0A0A" stroke-width="4" stroke-linecap="round" stroke-linejoin="round" stroke-miterlimit="10" d="
	M254.2,159"/>
<g>
	<rect id="svg_137" x="160.2" y="156.5" fill="#EF4966" stroke="#0D0A0A" stroke-miterlimit="10" width="3.5" height="0.6"/>
	<g>
		
			<line id="svg_136" fill="none" stroke="#0D0A0A" stroke-width="2" stroke-linecap="round" stroke-linejoin="round" x1="162" y1="156.8" x2="162" y2="432"/>
		<rect id="svg_138" x="160.2" y="431.7" fill="#EF4966" stroke="#0D0A0A" stroke-miterlimit="10" width="3.5" height="0.6"/>
	</g>
</g>
<g>
	
		<line id="svg_139" fill="none" stroke="#0D0A0A" stroke-width="2" stroke-linecap="round" stroke-linejoin="round" x1="574.2" y1="237.9" x2="574.2" y2="432.5"/>
	<rect id="svg_140" x="572.5" y="237.5" fill="#EF4966" stroke="#0D0A0A" stroke-miterlimit="10" width="3.5" height="0.6"/>
	<rect id="svg_141" x="572.5" y="432.2" fill="#EF4966" stroke="#0D0A0A" stroke-miterlimit="10" width="3.5" height="0.6"/>
</g>
<g>
	
		<line id="svg_142" fill="none" stroke="#0D0A0A" stroke-width="2" stroke-linecap="round" stroke-linejoin="round" x1="574.2" y1="156.7" x2="574.2" y2="214.6"/>
	<g>
		<rect id="svg_143" x="572.5" y="156.5" fill="#EF4966" stroke="#0D0A0A" stroke-miterlimit="10" width="3.5" height="0.5"/>
		<rect id="svg_144" x="572.5" y="214.4" fill="#EF4966" stroke="#0D0A0A" stroke-miterlimit="10" width="3.5" height="0.5"/>
	</g>
</g>
<g>
	<g>
		
			<line id="svg_145" fill="none" stroke="#0D0A0A" stroke-width="2" stroke-linecap="round" stroke-linejoin="round" x1="260.8" y1="150.7" x2="462.5" y2="150.7"/>
		<rect id="svg_146" x="259" y="149" fill="#EF4966" stroke="#0D0A0A" stroke-miterlimit="10" width="0.5" height="3.5"/>
	</g>
	<g>
		<g>
			<rect id="svg_147" x="463.5" y="149" fill="#EF4966" stroke="#0D0A0A" stroke-miterlimit="10" width="0.5" height="3.5"/>
		</g>
	</g>
</g>
<line id="svg_253" fill="none" stroke="#0D0A0A" stroke-width="2" stroke-linecap="round" stroke-linejoin="round" stroke-miterlimit="10" x1="151.3" y1="209.1" x2="156.8" y2="212.9"/>
<line id="svg_254" fill="none" stroke="#0D0A0A" stroke-width="2" stroke-linecap="round" stroke-linejoin="round" stroke-miterlimit="10" x1="151.5" y1="246" x2="156.5" y2="241.2"/>
<polyline id="svg_255" fill="none" stroke="#0D0A0A" stroke-width="2" stroke-linecap="round" stroke-linejoin="round" stroke-miterlimit="10" points="
	550.5,238.2 555.2,238.2 543.3,264 "/>
<g>
	
		<polyline id="svg_256" fill="none" stroke="#0D0A0A" stroke-width="2" stroke-linecap="round" stroke-linejoin="round" stroke-miterlimit="10" points="
		550.7,214.4 555.2,214.4 533.5,198.6 	"/>
</g>
<g>
	<g>
		<g>
			
				<line id="svg_188" fill="none" stroke="#0D0A0A" stroke-width="2" stroke-linecap="round" stroke-linejoin="round" x1="173.9" y1="133.2" x2="547.5" y2="133.2"/>
		</g>
	</g>
	<g>
		<g>
			<g>
				<rect id="svg_189" x="173.6" y="129.4" fill="#010101" stroke="#0D0A0A" stroke-miterlimit="10" width="0.5" height="7.4"/>
			</g>
		</g>
		<g>
			<g>
				<rect id="svg_189_1_" x="547.5" y="129.5" fill="#010101" stroke="#0D0A0A" stroke-miterlimit="10" width="0.5" height="7.4"/>
			</g>
		</g>
	</g>
</g>
<text id="SVG_width_mm" transform="matrix(1 0 0 1 333.0185 118.3027)" font-family="'ArialMT'" font-size="17.7431">6.83mm</text>
<text id="SVG_table_pre" transform="matrix(1 0 0 1 346.6376 148.7196)" font-family="'ArialMT'" font-size="16.4757">60%</text>
<text id="SVG_crown_pre" transform="matrix(1 0 0 1 585.9267 188.5722)" font-family="'ArialMT'" font-size="17.7431">13.0%</text>
<text id="SVG_crown_mm" transform="matrix(1 0 0 1 585.9267 212.6518)" font-family="'ArialMT'" font-size="17.7431">0.86mm</text>
<text id="SVG_pavillion_pre" transform="matrix(1 0 0 1 585.9267 330.5859)" font-family="'ArialMT'" font-size="17.7431">43.5%</text>
<text id="SVG_pavillion_mm" transform="matrix(1 0 0 1 585.9267 354.666)" font-family="'ArialMT'" font-size="17.7431">2.98mm</text>
<text id="SVG_girdle_pre" transform="matrix(1 0 0 1 98.1908 212.7611)" font-family="'ArialMT'" font-size="17.7431">3.0%</text>
<text id="SVG_girdle_mm" transform="matrix(1 0 0 1 74.5469 248.8407)" font-family="'ArialMT'" font-size="17.7431">0.21mm</text>
<text id="SVG_culet_mm" transform="matrix(1 0 0 1 339.8407 454.0741)" font-family="'ArialMT'" font-size="17.7431">0.23%</text>
<text id="SVG_crown_rounded" transform="matrix(1 0 0 1 524.1522 186.1361)" font-family="'ArialMT'" font-size="17.7431">32.5°</text>
<text id="SVG_pavillion_rounded" transform="matrix(1 0 0 1 528.2812 300.2879)" font-family="'ArialMT'" font-size="17.7431">41.0°</text>
<text id="SVG_total_depth_per" transform="matrix(1 0 0 1 63.368 361.6366)" font-family="'ArialMT'" font-size="17.7431">4.07mm</text>
<text id="SVG_total_depth_mm" transform="matrix(1 0 0 1 63.368 386.9832)" font-family="'ArialMT'" font-size="17.7431">59.6%</text>
<polygon fill="none" stroke="#0D0A0A" stroke-width="3" stroke-miterlimit="10" points="258.4,156.5 463.2,156.5 548,215.2 
	548,237.8 523.7,292 359.3,433.5 199.7,295 173.6,239.9 173.6,215.2 "/>
<g>
	<path fill="none" stroke="#231F20" stroke-width="3" stroke-miterlimit="10" d="M264.2,156.5"/>
	<path fill="none" stroke="#231F20" stroke-width="3" stroke-miterlimit="10" d="M243.5,241.2"/>
	<path fill="none" stroke="#231F20" stroke-width="3" stroke-miterlimit="10" d="M267.4,183.6"/>
	<path fill="none" stroke="#231F20" stroke-width="3" stroke-miterlimit="10" d="M348.2,156.5"/>
</g>
<g>
	<polygon fill="none" stroke="#231F20" stroke-width="3" stroke-miterlimit="10" points="532.9,271.4 415,385.5 511.2,251 
		546.4,241.2 	"/>
	<line fill="none" stroke="#231F20" stroke-width="3" stroke-miterlimit="10" x1="452.8" y1="156.5" x2="508.4" y2="187.7"/>
	<line fill="none" stroke="#231F20" stroke-width="3" stroke-miterlimit="10" x1="476" y1="241.2" x2="432.7" y2="274.4"/>
	<path fill="none" stroke="#231F20" stroke-width="3" stroke-miterlimit="10" d="M443,156.5l11.2,33.4L362.3,216l112.5,11.3
		c0.1,0,0.1-0.1,0.1-0.1l-21.4-38.6c-0.2-0.3,0.1-0.6,0.4-0.4l55.3,28.1c0.4,0.2,0.8-0.1,0.8-0.5l-2.7-27.5c0-0.2,0.2-0.3,0.4-0.2
		l38.7,36.2c0.1,0.1,0,0.4-0.2,0.3l-36.2-7.9L475,227.3v8.3l2,5.6l33.2,9.8L380,388.7l-18.7-92.3l72.3-22L359,433.5"/>
	<line fill="none" stroke="#231F20" stroke-width="3" stroke-miterlimit="10" x1="370.3" y1="156.5" x2="451.1" y2="183.6"/>
	<line fill="none" stroke="#0D0A0A" stroke-width="3" stroke-miterlimit="10" x1="359" y1="235.7" x2="475" y2="235.7"/>
</g>
<path fill="none" stroke="#231F20" stroke-width="3" stroke-miterlimit="10" d="M189.3,272.4l119.1,116.9L209.1,251l-32.4-9
	c-1.1-0.3-2,0.8-1.5,1.9L189.3,272.4z"/>
<line fill="none" stroke="#231F20" stroke-width="3" stroke-miterlimit="10" x1="267.4" y1="156.5" x2="213.8" y2="188.2"/>
<line fill="none" stroke="#231F20" stroke-width="3" stroke-miterlimit="10" x1="244.2" y1="241.2" x2="287.6" y2="274.4"/>
<path fill="none" stroke="#231F20" stroke-width="3" stroke-miterlimit="10" d="M277.2,156.5L266,189.9l91.9,26.1l-112.5,11.3
	c-0.1,0-0.1-0.1-0.1-0.1l21.4-38.6c0.2-0.3-0.1-0.6-0.4-0.4l-55.3,28.1c-0.4,0.2-0.8-0.1-0.8-0.5l3.7-27.5c0-0.2,0.1-0.1,0,0
	l-40.1,36.1c-0.1,0.1,0,0.4,0.2,0.3l36.2-7.9l35.2,10.7v8.3l-2,5.6l-33.2,9.8l130.2,137.7l18.7-92.3l-72.3-22l73,157.9"/>
<line fill="none" stroke="#231F20" stroke-width="3" stroke-miterlimit="10" x1="349.9" y1="156.5" x2="269.1" y2="183.6"/>
<line fill="none" stroke="#0D0A0A" stroke-width="3" stroke-miterlimit="10" x1="361.2" y1="235.7" x2="245.2" y2="235.7"/>
</svg>
