<?xml version="1.0" encoding="utf-8"?>
<!-- Generator: Adobe Illustrator 19.0.1, SVG Export Plug-In . SVG Version: 6.00 Build 0)  -->
<svg version="1.1" id="Layer_1" xmlns="http://www.w3.org/2000/svg" xmlns:xlink="http://www.w3.org/1999/xlink" x="0px" y="0px"
	 viewBox="164 164.9 923 513" style="enable-background:new 164 164.9 923 513;" xml:space="preserve">
<style type="text/css">
	.st0{fill:none;stroke:#0D0A0A;stroke-linecap:round;stroke-linejoin:round;stroke-miterlimit:10;}
	.st1{fill:none;stroke:#0D0A0A;stroke-width:2;stroke-linecap:round;stroke-linejoin:round;}
	.st2{fill:#EF4966;stroke:#0D0A0A;stroke-miterlimit:10;}
	.st3{fill:#010101;stroke:#0D0A0A;stroke-miterlimit:10;}
	.st4{fill:none;stroke:#0D0A0A;stroke-width:2;stroke-linecap:round;stroke-linejoin:round;stroke-miterlimit:10;}
	.st5{font-family:'ArialMT';}
	.st6{font-size:22.434px;}
	.st7{font-size:20.8316px;}
	.st8{fill:#FFFFFF;}
	.st9{fill:#FFFFFF;stroke:#231F20;stroke-miterlimit:10;}
	.st10{fill:#0D0A0A;}
	.st11{fill:none;stroke:#231F20;stroke-width:4;stroke-linecap:round;stroke-linejoin:round;stroke-miterlimit:10;}
</style>
<g>
	
		<image style="overflow:visible;" width="241" height="127" xlink:href="72530C0F.png"  transform="matrix(3.0574 0 0 3.0588 1146.736 243.2498)">
	</image>
</g>
<path id="svg_35" class="st0" d="M427.3,287.4"/>
<line id="svg_136" class="st1" x1="316.8" y1="303.8" x2="316.8" y2="588.4"/>
<rect id="svg_137" x="314.6" y="303.4" class="st2" width="4.4" height="0.7"/>
<rect id="svg_138" x="314.6" y="588.1" class="st2" width="4.4" height="0.7"/>
<line id="svg_139" class="st1" x1="957" y1="392" x2="957" y2="588.4"/>
<rect id="svg_140" x="954.8" y="391.7" class="st2" width="4.4" height="0.7"/>
<rect id="svg_141" x="954.8" y="588.1" class="st2" width="4.4" height="0.7"/>
<line id="svg_142" class="st1" x1="957" y1="304.8" x2="957" y2="376"/>
<rect id="svg_143" x="954.8" y="304.4" class="st2" width="4.4" height="0.7"/>
<rect id="svg_144" x="954.8" y="375.7" class="st2" width="4.4" height="0.7"/>
<line id="svg_145" class="st1" x1="410.7" y1="276.8" x2="842.1" y2="276.8"/>
<rect id="svg_146" x="410.3" y="274.7" class="st2" width="0.7" height="4.4"/>
<g>
	<g>
		<rect id="svg_147" x="841.8" y="274.7" class="st2" width="0.7" height="4.4"/>
	</g>
</g>
<g>
	<g>
		<line id="svg_188" class="st1" x1="322.1" y1="254.8" x2="929.7" y2="254.8"/>
	</g>
</g>
<g>
	<g>
		<rect id="svg_189" x="321.7" y="249.1" class="st3" width="0.7" height="11.2"/>
	</g>
</g>
<line id="svg_253" class="st4" x1="306.8" y1="371.8" x2="313.7" y2="376.6"/>
<line id="svg_254" class="st4" x1="307.4" y1="397.7" x2="313.7" y2="391.7"/>
<polyline id="svg_255" class="st4" points="933.7,392.2 939.4,392.2 911.9,415.5 "/>
<g>
	<polyline id="svg_256" class="st4" points="933.7,375.5 939.4,375.5 911.9,355.7 	"/>
</g>
<g>
	<g>
		<rect id="svg_189_1_" x="929.7" y="249.2" class="st3" width="0.7" height="11.2"/>
	</g>
</g>
<text id="SVG_width_mm" transform="matrix(1 0 0 1 578.7413 235.909)" class="st5 st6">6.59mm</text>
<text id="SVG_table_pre" transform="matrix(1 0 0 1 595.961 274.3671)" class="st5 st7">59.0%</text>
<text id="SVG_crown_pre" transform="matrix(1 0 0 1 971.8361 318.434)" class="st5 st6">13.0%</text>
<text id="SVG_crown_mm" transform="matrix(1 0 0 1 971.8361 348.8803)" class="st5 st6">0.86mm</text>
<text id="SVG_pavillion_pre" transform="matrix(1 0 0 1 971.8361 504.3159)" class="st5 st6">43.5%</text>
<text id="SVG_pavillion_mm" transform="matrix(1 0 0 1 971.8361 534.7621)" class="st5 st6">2.85mm</text>
<text id="SVG_girdle_pre" transform="matrix(1 0 0 1 236.1504 374.5131)" class="st5 st6">3.0%</text>
<text id="SVG_girdle_mm" transform="matrix(1 0 0 1 206.2554 404.9594)" class="st5 st6">0.21mm</text>
<text id="SVG_culet_mm" transform="matrix(1 0 0 1 593.689 630.1069)" class="st5 st6">0.14%</text>
<text id="SVG_crown_rounded" transform="matrix(1 0 0 1 900.9848 330.1589)" class="st5 st6">32.5°</text>
<text id="SVG_pavillion_rounded" transform="matrix(1 0 0 1 900.9843 471.0658)" class="st5 st6">41.0°</text>
<text id="SVG_total_depth_per" transform="matrix(1 0 0 1 212.1211 543.5756)" class="st5 st6">3.92mm</text>
<text id="SVG_total_depth_mm" transform="matrix(1 0 0 1 212.1211 575.6244)" class="st5 st6">59.5%</text>
<rect x="1983" y="285.3" class="st8" width="503.9" height="318.5"/>
<rect x="1223.2" y="66.7" class="st9" width="579.6" height="27"/>
<rect x="1352" y="203.4" class="st10" width="308.6" height="13.8"/>
<g>
	<rect x="324.4" y="375.9" class="st11" width="604" height="15.5"/>
	<line class="st11" x1="627.1" y1="375.9" x2="627.1" y2="587.4"/>
	<polygon class="st11" points="412.1,304.8 841.7,304.8 928.4,375.9 928.4,391.4 742.8,521 627.1,587.4 510.3,521.3 324.4,391.4 
		324.4,375.9 	"/>
	<polygon class="st11" points="387.7,325.1 367.7,375.9 367.7,391.8 510.3,521.3 422.3,391 422.3,375.8 	"/>
	<polygon class="st11" points="865.6,325.1 885.6,375.9 885.6,391.8 743,521.3 831,391 831,375.8 	"/>
	<polygon class="st11" points="743.4,391.4 627.1,587.4 831,391 831,375.8 709.1,325.1 743.4,376.8 	"/>
	<polygon class="st11" points="510,391.4 626.3,587.4 422.4,391 422.4,375.8 544.3,325.1 510,376.8 	"/>
	<polyline class="st11" points="387.7,325.1 490.1,305.1 544.3,325.1 626.8,305.4 	"/>
	<polyline class="st11" points="865.9,325.1 763.6,305.1 709.3,325.1 626.9,305.4 	"/>
	<polyline class="st11" points="710.3,325.4 627.1,375.9 544.9,325.4 	"/>
</g>
</svg>
