<svg id="Слой_1" data-name="Слой 1" xmlns="http://www.w3.org/2000/svg" viewBox="0 0 378.9 259.2"><defs><style>.cls-1,.cls-2,.cls-3,.cls-4{fill:none;}.cls-1{stroke:#000;}.cls-1,.cls-3{stroke-linejoin:bevel;}.cls-3{stroke:#070607;}.cls-4{stroke:#0b0909;stroke-linecap:round;stroke-linejoin:round;}.cls-5{fill:#0b0909;}.cls-6,.cls-7{isolation:isolate;fill:#070606;font-family:ArialMT, Arial;}.cls-6{font-size:10.51px;}.cls-7{font-size:8.54px;}</style></defs><title>Radiant</title>
<polygon class="cls-1" points="322.7 77.3 322.8 89.4 271 175.1 192.9 244.4 114.8 175.1 65.7 89.4 65.7 77.3 114.8 45.1 269.2 45.1 322.7 77.3"/>
<line class="cls-2" x1="322.8" y1="89.4" x2="65.7" y2="89.4"/>
<line class="cls-3" x1="265.9" y1="65.2" x2="279.2" y2="77.3"/>
<line class="cls-2" x1="84" y1="65.2" x2="302.5" y2="65.2"/>
<line class="cls-3" x1="105.9" y1="77.3" x2="119.8" y2="65.2"/>
<line class="cls-2" x1="105.9" y1="77.3" x2="119.8" y2="65.2"/>
<line class="cls-2" x1="265.9" y1="65.2" x2="279.2" y2="77.3"/>
<line class="cls-3" x1="84" y1="65.2" x2="302.5" y2="65.2"/>
<line class="cls-3" x1="112.8" y1="117.5" x2="154.5" y2="151.2"/>
<line class="cls-3" x1="322.8" y1="89.4" x2="65.7" y2="89.4"/>
<line class="cls-2" x1="112.8" y1="117.5" x2="154.5" y2="151.2"/>
<line class="cls-3" x1="279.1" y1="89.4" x2="279.2" y2="77.3"/>
<line class="cls-2" x1="232.4" y1="151.2" x2="193" y2="166"/>
<line class="cls-2" x1="105.9" y1="131.6" x2="150.1" y2="206.6"/>
<line class="cls-3" x1="105.9" y1="131.6" x2="150.1" y2="206.6"/>
<line class="cls-2" x1="239.7" y1="202.9" x2="281.5" y2="130.7"/>
<line class="cls-2" x1="193" y1="166" x2="154.5" y2="151.2"/>
<line class="cls-3" x1="239.7" y1="202.9" x2="281.5" y2="130.7"/>
<line class="cls-3" x1="193" y1="166" x2="154.5" y2="151.2"/>
<line class="cls-3" x1="232.4" y1="151.2" x2="193" y2="166"/>
<line class="cls-2" x1="193" y1="220.3" x2="154.5" y2="151.2"/>
<line class="cls-3" x1="193" y1="220.3" x2="154.5" y2="151.2"/>
<line class="cls-3" x1="232.4" y1="151.2" x2="272.1" y2="117.5"/>
<line class="cls-2" x1="232.4" y1="151.2" x2="272.1" y2="117.5"/>
<line class="cls-2" x1="193" y1="220.3" x2="232.4" y2="151.2"/>
<line class="cls-3" x1="193.3" y1="45.1" x2="119.8" y2="65.2"/>
<line class="cls-3" x1="193" y1="220.3" x2="232.4" y2="151.2"/>
<line class="cls-2" x1="279.1" y1="89.4" x2="279.2" y2="77.3"/>
<line class="cls-2" x1="88.3" y1="128.8" x2="105.9" y2="131.6"/>
<line class="cls-2" x1="105.9" y1="77.3" x2="105.8" y2="89.4"/>
<line class="cls-3" x1="88.3" y1="128.8" x2="105.9" y2="131.6"/>
<line class="cls-3" x1="105.9" y1="77.3" x2="105.8" y2="89.4"/>
<line class="cls-2" x1="265.9" y1="65.2" x2="193.3" y2="45.1"/>
<line class="cls-2" x1="193.3" y1="45.1" x2="119.8" y2="65.2"/>
<line class="cls-3" x1="265.9" y1="65.2" x2="193.3" y2="45.1"/>
<line class="cls-2" x1="272.1" y1="117.5" x2="279.1" y2="89.4"/>
<line class="cls-3" x1="193" y1="220.3" x2="105.9" y2="131.6"/>
<line class="cls-2" x1="112.8" y1="117.5" x2="105.8" y2="89.4"/>
<line class="cls-3" x1="272.1" y1="117.5" x2="279.1" y2="89.4"/>
<line class="cls-3" x1="112.8" y1="117.5" x2="105.8" y2="89.4"/>
<line class="cls-2" x1="193" y1="220.3" x2="105.9" y2="131.6"/>
<line class="cls-2" x1="193" y1="220.3" x2="281.5" y2="130.7"/>
<line class="cls-3" x1="193" y1="220.3" x2="281.5" y2="130.7"/>
<line class="cls-2" x1="322.7" y1="77.3" x2="65.7" y2="77.3"/>
<line class="cls-2" x1="281.5" y1="130.7" x2="300.6" y2="126.3"/>
<line class="cls-3" x1="322.7" y1="77.3" x2="65.7" y2="77.3"/>
<line class="cls-2" x1="302.5" y1="65.2" x2="251.2" y2="45.1"/>
<line class="cls-3" x1="131.4" y1="45.1" x2="84" y2="65.2"/>
<line class="cls-2" x1="131.4" y1="45.1" x2="84" y2="65.2"/>
<line class="cls-3" x1="281.5" y1="130.7" x2="300.6" y2="126.3"/>
<line class="cls-3" x1="302.5" y1="65.2" x2="251.2" y2="45.1"/>
<line class="cls-3" x1="272.1" y1="117.5" x2="281.5" y2="130.7"/>
<line class="cls-2" x1="272.1" y1="117.5" x2="281.5" y2="130.7"/>
<line class="cls-4" x1="73.3" y1="17.3" x2="311.8" y2="17.3"/>
<line class="cls-3" x1="112.8" y1="117.5" x2="105.9" y2="131.6"/>
<line class="cls-2" x1="112.8" y1="117.5" x2="105.9" y2="131.6"/>
<line class="cls-2" x1="192.9" y1="244.4" x2="193" y2="166"/>
<line class="cls-3" x1="192.9" y1="244.4" x2="193" y2="166"/>
<line class="cls-4" x1="46.8" y1="44.3" x2="46.8" y2="240.9"/>

<rect class="cls-5" x="311.3" y="14.1" width="1" height="6.5"/>
<rect class="cls-5" x="43.6" y="43.8" width="6.5" height="1"/>
<rect class="cls-5" x="330.6" y="73.4" width="6.5" height="1"/>
<rect class="cls-5" x="43.6" y="240.4" width="6.5" height="1"/>
<line class="cls-4" x1="333.9" y1="45.3" x2="333.9" y2="73.9"/>
<rect class="cls-5" x="330.6" y="44.8" width="6.5" height="1"/>
<line class="cls-4" x1="115.4" y1="35.7" x2="269.6" y2="35.7"/>
<rect class="cls-5" x="269.1" y="32.4" width="1" height="6.5"/>
<rect class="cls-5" x="114.9" y="32.4" width="1" height="6.5"/>
<rect class="cls-5" x="72.8" y="14.1" width="1" height="6.5"/>

<text class="cls-6" transform="translate(176.4 9)">0.00mm</text>
<text class="cls-7" transform="translate(177.8 32.7) scale(1.14 1)">00.0%</text>
<text class="cls-6" transform="translate(297.6 54.2)">00.0°</text>
<text class="cls-6" transform="translate(340.9 157.4)">0.00mm</text>
<text class="cls-6" transform="translate(340.9 57.7)">0.00mm</text>
<text class="cls-6" transform="translate(177.2 255.8)">0.00%</text>
<text class="cls-6" transform="translate(0.4 141)">0.00mm</text>
<text class="cls-6" transform="translate(340.9 143.1)">00.0%</text>
<text class="cls-6" transform="translate(0.4 156)">00.0%</text>
<text class="cls-6" transform="translate(340.9 43.5)">00.0%</text>
<text class="cls-6" transform="translate(0 67.8)">0.00mm</text>

<rect class="cls-5" x="330.6" y="93.7" width="6.5" height="1"/>
<line class="cls-4" x1="56.5" y1="94" x2="60.4" y2="90.2"/>
<line class="cls-4" x1="333.8" y1="94.2" x2="333.9" y2="241.9"/>
<rect class="cls-5" x="330.6" y="241.4" width="6.5" height="1"/>
<text class="cls-6" transform="translate(14 53.6)">3.0%</text>
</svg>