<svg id="Layer_1" data-name="Layer 1" xmlns="http://www.w3.org/2000/svg" viewBox="0 0 586.7 356.8"><defs><style>.cls-1{fill:#fff;}.cls-1,.cls-2,.cls-3,.cls-4,.cls-5,.cls-8{stroke:#0d0a0a;}.cls-1,.cls-3,.cls-5,.cls-8,.cls-9{stroke-miterlimit:10;}.cls-2,.cls-4,.cls-8,.cls-9{fill:none;}.cls-2,.cls-4{stroke-linecap:round;stroke-linejoin:round;}.cls-2{stroke-width:4px;}.cls-3{fill:#ef4966;}.cls-4{stroke-width:2px;}.cls-5{fill:#010101;}.cls-6,.cls-7{isolation:isolate;font-family:ArialMT, Arial;}.cls-6{font-size:17.74px;}.cls-7{font-size:16.48px;}.cls-8,.cls-9{stroke-width:3px;}.cls-9{stroke:#231f20;}</style></defs><title>Asscher Brilliance</title><path id="svg_3" data-name="svg 3" class="cls-1" d="M438.6,74.8"/>
<path id="svg_35" data-name="svg 35" class="cls-2" d="M190.8,55.9"/>
<rect id="svg_137" data-name="svg 137" class="cls-3" x="96.8" y="53.4" width="3.5" height="0.6"/>
<line id="svg_136" data-name="svg 136" class="cls-4" x1="98.6" y1="53.7" x2="98.6" y2="328.9"/>
<rect id="svg_138" data-name="svg 138" class="cls-3" x="96.8" y="328.6" width="3.5" height="0.6"/>
<line id="svg_139" data-name="svg 139" class="cls-4" x1="510.8" y1="134.8" x2="510.8" y2="329.4"/>
<rect id="svg_140" data-name="svg 140" class="cls-3" x="509.1" y="134.4" width="3.5" height="0.6"/>
<rect id="svg_141" data-name="svg 141" class="cls-3" x="509.1" y="329.1" width="3.5" height="0.6"/>
<line id="svg_142" data-name="svg 142" class="cls-4" x1="510.8" y1="53.6" x2="510.8" y2="111.5"/>
<rect id="svg_143" data-name="svg 143" class="cls-3" x="509.1" y="53.4" width="3.5" height="0.5"/>
<rect id="svg_144" data-name="svg 144" class="cls-3" x="509.1" y="111.3" width="3.5" height="0.5"/>
<line id="svg_145" data-name="svg 145" class="cls-4" x1="197.4" y1="47.6" x2="399.1" y2="47.6"/>
<rect id="svg_146" data-name="svg 146" class="cls-3" x="195.6" y="45.9" width="0.5" height="3.5"/>
<rect id="svg_147" data-name="svg 147" class="cls-3" x="400.1" y="45.9" width="0.5" height="3.5"/>
<line id="svg_253" data-name="svg 253" class="cls-4" x1="87.9" y1="106" x2="93.4" y2="109.8"/>
<line id="svg_254" data-name="svg 254" class="cls-4" x1="88.1" y1="142.9" x2="93.1" y2="138.1"/>
<polyline id="svg_255" data-name="svg 255" class="cls-4" points="487.1 135.1 491.8 135.1 479.9 160.9"/>
<polyline id="svg_256" data-name="svg 256" class="cls-4" points="487.3 111.3 491.8 111.3 470.1 95.5"/>
<line id="svg_188" data-name="svg 188" class="cls-4" x1="110.5" y1="30.1" x2="484.1" y2="30.1"/>
<rect id="svg_189" data-name="svg 189" class="cls-5" x="110.2" y="26.3" width="0.5" height="7.4"/>
<rect id="svg_189-2" data-name="svg 189" class="cls-5" x="484.1" y="26.4" width="0.5" height="7.4"/>

<text id="SVG_width_mm" transform="translate(269.7 15.2)">0.00mm</text>
<text id="SVG_table_pre" transform="translate(283.3 45.6)">00%</text>
<text id="SVG_crown_pre" transform="translate(522.6 85.5)">00.0%</text>
<text id="SVG_crown_mm" transform="translate(522.6 109.6)">0.00mm</text>
<text id="SVG_pavillion_pre" transform="translate(522.6 227.5)">00.0%</text>
<text id="SVG_pavillion_mm" transform="translate(522.6 251.6)">0.00mm</text>
<text id="SVG_girdle_pre" transform="translate(34.8 109.7)">0.0%</text>
<text id="SVG_girdle_mm" transform="translate(11.2 145.8)">0.00mm</text>
<text id="SVG_culet_mm" transform="translate(276.5 351)">0.00%</text>
<text id="SVG_crown_rounded" transform="translate(460.8 83.1)">00.0°</text>
<text id="SVG_pavillion_rounded" transform="translate(464.9 197.2)">00.0°</text>
<text id="SVG_total_depth_per" transform="translate(0 258.6)">0.00mm</text>
<text id="SVG_total_depth_mm" transform="translate(0 283.9)">00.0%</text>

<polygon class="cls-8" points="195 53.4 399.8 53.4 484.6 112.1 484.6 134.7 460.3 188.9 295.9 330.4 136.3 191.9 110.2 136.8 110.2 112.1 195 53.4"/>
<path class="cls-9" d="M200.8,53.4"/><path class="cls-9" d="M180.1,138.1"/>
<path class="cls-9" d="M204,80.5"/>
<path class="cls-9" d="M284.8,53.4"/>
<polygon class="cls-9" points="469.5 168.3 351.6 282.4 447.8 147.9 483 138.1 469.5 168.3"/>
<line class="cls-9" x1="389.4" y1="53.4" x2="445" y2="84.6"/>
<line class="cls-9" x1="412.6" y1="138.1" x2="369.3" y2="171.3"/>
<path class="cls-9" d="M379.6,53.4l11.2,33.4-91.9,26.1,112.5,11.3a.1.1,0,0,0,.1-.1L390.1,85.5a.3.3,0,0,1,.4-.4l55.3,28.1a.5.5,0,0,0,.8-.5l-2.7-27.5c0-.2.2-.3.4-.2L483,121.2c.1.1,0,.4-.2.3l-36.2-7.9-35,10.6v8.3l2,5.6,33.2,9.8L316.6,285.6l-18.7-92.3,72.3-22L295.6,330.4"/>
<line class="cls-9" x1="306.9" y1="53.4" x2="387.7" y2="80.5"/>
<line class="cls-8" x1="295.6" y1="132.6" x2="411.6" y2="132.6"/>
<path class="cls-9" d="M125.9,169.3,245,286.2,145.7,147.9l-32.4-9a1.3,1.3,0,0,0-1.5,1.9Z"/>
<line class="cls-9" x1="204" y1="53.4" x2="150.4" y2="85.1"/>
<line class="cls-9" x1="180.8" y1="138.1" x2="224.2" y2="171.3"/>
<path class="cls-9" d="M213.8,53.4,202.6,86.8l91.9,26.1L182,124.2a.1.1,0,0,1-.1-.1l21.4-38.6a.3.3,0,0,0-.4-.4l-55.3,28.1a.5.5,0,0,1-.8-.5l3.7-27.5c0-.2.1-.1,0,0l-40.1,36.1c-.1.1,0,.4.2.3l36.2-7.9L182,124.4v8.3l-2,5.6-33.2,9.8L277,285.8l18.7-92.3-72.3-22,73,157.9"/>
<line class="cls-9" x1="286.5" y1="53.4" x2="205.7" y2="80.5"/>
<line class="cls-8" x1="297.8" y1="132.6" x2="181.8" y2="132.6"/>
</svg>