<?xml version="1.0" encoding="utf-8"?>
<!-- Generator: Adobe Illustrator 19.0.1, SVG Export Plug-In . SVG Version: 6.00 Build 0)  -->
<svg version="1.1" id="Layer_1" xmlns="http://www.w3.org/2000/svg" xmlns:xlink="http://www.w3.org/1999/xlink" x="0px" y="0px"
	 viewBox="164 164.9 923 513" style="enable-background:new 164 164.9 923 513;" xml:space="preserve">
<style type="text/css">
	.st0{fill:none;stroke:#0D0A0A;stroke-linecap:round;stroke-linejoin:round;stroke-miterlimit:10;}
	.st1{fill:none;stroke:#0D0A0A;stroke-width:2;stroke-linecap:round;stroke-linejoin:round;}
	.st2{fill:#EF4966;stroke:#0D0A0A;stroke-miterlimit:10;}
	.st3{fill:#010101;stroke:#0D0A0A;stroke-miterlimit:10;}
	.st4{fill:none;stroke:#0D0A0A;stroke-width:2;stroke-linecap:round;stroke-linejoin:round;stroke-miterlimit:10;}
	.st5{font-family:'ArialMT';}
	.st6{font-size:22.434px;}
	.st7{font-size:20.8316px;}
	.st8{fill:#FFFFFF;}
	.st9{fill:#FFFFFF;stroke:#231F20;stroke-miterlimit:10;}
	.st10{fill:#0D0A0A;}
	.st11{fill:none;stroke:#0D0A0A;stroke-width:4;stroke-linecap:round;stroke-linejoin:round;stroke-miterlimit:10;}
</style>
<path id="svg_35" class="st0" d="M427.3,287.4"/>
<line id="svg_136" class="st1" x1="316.8" y1="310.8" x2="316.8" y2="584.4"/>
<rect id="svg_137" x="314.6" y="310.4" class="st2" width="4.4" height="0.7"/>
<rect id="svg_138" x="314.6" y="584.1" class="st2" width="4.4" height="0.7"/>
<line id="svg_139" class="st1" x1="957" y1="405" x2="957" y2="584.4"/>
<rect id="svg_140" x="954.8" y="404.7" class="st2" width="4.4" height="0.7"/>
<rect id="svg_141" x="954.8" y="584.1" class="st2" width="4.4" height="0.7"/>
<line id="svg_142" class="st1" x1="957" y1="309.8" x2="957" y2="379"/>
<rect id="svg_143" x="954.8" y="309.4" class="st2" width="4.4" height="0.7"/>
<rect id="svg_144" x="954.8" y="378.7" class="st2" width="4.4" height="0.7"/>
<line id="svg_145" class="st1" x1="472.7" y1="276.8" x2="831.1" y2="276.8"/>
<rect id="svg_146" x="472.3" y="274.7" class="st2" width="0.7" height="4.4"/>
<g>
	<g>
		<rect id="svg_147" x="830.8" y="274.7" class="st2" width="0.7" height="4.4"/>
	</g>
</g>
<g>
	<g>
		<line id="svg_188" class="st1" x1="337.1" y1="254.8" x2="913.7" y2="254.8"/>
	</g>
</g>
<g>
	<g>
		<rect id="svg_189" x="336.7" y="249.1" class="st3" width="0.7" height="11.2"/>
	</g>
</g>
<line id="svg_253" class="st4" x1="306.8" y1="365.8" x2="313.7" y2="370.6"/>
<line id="svg_254" class="st4" x1="307.4" y1="396.7" x2="313.7" y2="390.7"/>
<polyline id="svg_255" class="st4" points="926.5,404 932.2,404 904.7,427.2 "/>
<g>
	<polyline id="svg_256" class="st4" points="926.5,381 932.2,381 904.7,361.2 	"/>
</g>
<g>
	<g>
		<rect id="svg_189_1_" x="913.7" y="249.2" class="st3" width="0.7" height="11.2"/>
	</g>
</g>
<text id="SVG_width_mm" transform="matrix(1 0 0 1 578.7413 235.909)" class="st5 st6">6.59mm</text>
<text id="SVG_table_pre" transform="matrix(1 0 0 1 595.961 274.3671)" class="st5 st7">59.0%</text>
<text id="SVG_crown_pre" transform="matrix(1 0 0 1 971.8361 318.434)" class="st5 st6">13.0%</text>
<text id="SVG_crown_mm" transform="matrix(1 0 0 1 971.8361 348.8803)" class="st5 st6">0.86mm</text>
<text id="SVG_pavillion_pre" transform="matrix(1 0 0 1 971.8361 474.3159)" class="st5 st6">43.5%</text>
<text id="SVG_pavillion_mm" transform="matrix(1 0 0 1 971.8361 504.7621)" class="st5 st6">2.85mm</text>
<text id="SVG_girdle_pre" transform="matrix(1 0 0 1 236.1504 374.5131)" class="st5 st6">3.0%</text>
<text id="SVG_girdle_mm" transform="matrix(1 0 0 1 206.2554 404.9594)" class="st5 st6">0.21mm</text>
<text id="SVG_culet_mm" transform="matrix(1 0 0 1 674.3557 620.4402)" class="st5 st6">0.14%</text>
<text id="SVG_crown_rounded" transform="matrix(1 0 0 1 900.9848 340.1589)" class="st5 st6">32.5°</text>
<text id="SVG_pavillion_rounded" transform="matrix(1 0 0 1 900.9843 471.0658)" class="st5 st6">41.0°</text>
<text id="SVG_total_depth_per" transform="matrix(1 0 0 1 212.1211 491.5756)" class="st5 st6">3.92mm</text>
<text id="SVG_total_depth_mm" transform="matrix(1 0 0 1 212.1211 523.6244)" class="st5 st6">59.5%</text>
<rect x="1954" y="285.3" class="st8" width="503.9" height="318.5"/>
<rect x="1223.2" y="66.7" class="st9" width="579.6" height="27"/>
<rect x="1352" y="203.4" class="st10" width="308.6" height="13.8"/>
<g>
	
		<image style="overflow:visible;" width="239" height="127" xlink:href="5EE6D50D.png"  transform="matrix(3.0586 0 0 3.0599 1149 232.3879)">
	</image>
</g>
<g>
	<polygon class="st11" points="828.7,310.4 869.4,341.1 914,381.4 914,404.1 702.7,583.8 338,388.8 338,371.8 393.4,333.8 
		471.7,310.1 	"/>
	<polyline class="st11" points="338,371.8 481.7,371.8 499.4,380.8 542,380.8 552,376.1 570.4,386.1 637.4,386.1 648.7,380.1 
		658.7,386.1 709.4,386.1 720.7,380.1 732.7,386.4 783.7,386.4 793.7,380.4 805,386.1 849,386.1 858.7,379.1 874.7,386.8 
		900.7,386.8 910.4,378.1 	"/>
	<polyline class="st11" points="523.4,310.1 393.4,333.8 481.7,371.8 626.4,310.1 	"/>
	<path class="st11" d="M488,341.1"/>
	<line class="st11" x1="551.7" y1="310.4" x2="552" y2="376.1"/>
	<polyline class="st11" points="560.7,338.4 648.7,380.1 724.4,335.8 661,310.8 	"/>
	<polyline class="st11" points="753,310.8 724.4,335.8 793.7,380.4 817.4,339.8 773.7,310.4 	"/>
	<polyline class="st11" points="828.7,310.4 817.4,339.8 858.7,379.1 867.7,340.1 	"/>
	<line class="st11" x1="724.4" y1="335.8" x2="720.7" y2="380.1"/>
	<polyline class="st11" points="859,403.8 802.4,498.8 793,402.8 712.4,502.4 648.7,403.1 641.7,508.4 479.7,389.4 524.7,455.8 
		338,389.8 535,389.8 547,396.1 636.7,396.1 648.7,403.1 660,396.1 711.4,396.1 720.4,403.8 733,396.1 785,396.1 793,402.8 
		808.7,396.1 844,396.1 859,403.8 874,396.1 900.4,396.1 914,404.1 	"/>
	<polyline class="st11" points="720.4,403.8 702.7,583.8 641.7,508.4 548.4,396.1 	"/>
	<line class="st11" x1="702.7" y1="583.8" x2="524.7" y2="455.8"/>
</g>
</svg>
