<?xml version="1.0" encoding="utf-8"?>
<!-- Generator: Adobe Illustrator 18.1.1, SVG Export Plug-In . SVG Version: 6.00 Build 0)  -->
<svg version="1.1" id="Layer_1" xmlns="http://www.w3.org/2000/svg" xmlns:xlink="http://www.w3.org/1999/xlink" x="0px" y="0px"
	 viewBox="0 0 792 612" enable-background="new 0 0 792 612" xml:space="preserve">
<path id="svg_35" fill="none" stroke="#0D0A0A" stroke-linecap="round" stroke-linejoin="round" stroke-miterlimit="10" d="
	M202.7,149.4"/>
<line id="svg_136" fill="none" stroke="#0D0A0A" stroke-width="2" stroke-linecap="round" stroke-linejoin="round" x1="153.4" y1="148.1" x2="153.4" y2="420.6"/>
<rect id="svg_137" x="151.5" y="147.7" fill="#EF4966" stroke="#0D0A0A" stroke-miterlimit="10" width="3.8" height="0.6"/>
<rect id="svg_138" x="151.5" y="420.3" fill="#EF4966" stroke="#0D0A0A" stroke-miterlimit="10" width="3.8" height="0.6"/>
<line id="svg_139" fill="none" stroke="#0D0A0A" stroke-width="2" stroke-linecap="round" stroke-linejoin="round" x1="631.5" y1="228.9" x2="631.5" y2="420.6"/>
<rect id="svg_140" x="629.6" y="228.6" fill="#EF4966" stroke="#0D0A0A" stroke-miterlimit="10" width="3.8" height="0.6"/>
<rect id="svg_141" x="629.6" y="420.3" fill="#EF4966" stroke="#0D0A0A" stroke-miterlimit="10" width="3.8" height="0.6"/>
<line id="svg_142" fill="none" stroke="#0D0A0A" stroke-width="2" stroke-linecap="round" stroke-linejoin="round" x1="631.5" y1="148.1" x2="631.5" y2="217.7"/>
<rect id="svg_143" x="629.6" y="147.7" fill="#EF4966" stroke="#0D0A0A" stroke-miterlimit="10" width="3.8" height="0.6"/>
<rect id="svg_144" x="629.6" y="217.5" fill="#EF4966" stroke="#0D0A0A" stroke-miterlimit="10" width="3.8" height="0.6"/>
<line id="svg_145" fill="none" stroke="#0D0A0A" stroke-width="2" stroke-linecap="round" stroke-linejoin="round" x1="234.8" y1="140.3" x2="488.3" y2="140.3"/>
<rect id="svg_146" x="234.5" y="138.5" fill="#EF4966" stroke="#0D0A0A" stroke-miterlimit="10" width="0.6" height="3.8"/>
<g>
	<g>
		<rect id="svg_147" x="488.1" y="138.5" fill="#EF4966" stroke="#0D0A0A" stroke-miterlimit="10" width="0.6" height="3.8"/>
	</g>
</g>
<g>
	<g>
		
			<line id="svg_188" fill="none" stroke="#0D0A0A" stroke-width="2" stroke-linecap="round" stroke-linejoin="round" x1="164" y1="121.5" x2="605.5" y2="121.5"/>
	</g>
</g>
<g>
	<g>
		<rect id="svg_189" x="163.6" y="116.6" fill="#010101" stroke="#0D0A0A" stroke-miterlimit="10" width="0.6" height="9.6"/>
	</g>
</g>
<line id="svg_253" fill="none" stroke="#0D0A0A" stroke-width="2" stroke-linecap="round" stroke-linejoin="round" stroke-miterlimit="10" x1="144.8" y1="209.2" x2="150.7" y2="213.2"/>
<line id="svg_254" fill="none" stroke="#0D0A0A" stroke-width="2" stroke-linecap="round" stroke-linejoin="round" stroke-miterlimit="10" x1="145.3" y1="234.2" x2="150.7" y2="229.1"/>
<polyline id="svg_255" fill="none" stroke="#0D0A0A" stroke-width="2" stroke-linecap="round" stroke-linejoin="round" stroke-miterlimit="10" points="
	609.3,228.9 614.2,228.9 590.7,248.8 "/>
<g>
	
		<polyline id="svg_256" fill="none" stroke="#0D0A0A" stroke-width="2" stroke-linecap="round" stroke-linejoin="round" stroke-miterlimit="10" points="
		609.3,218.1 614.2,218.1 590.7,201 	"/>
</g>
<g>
	<g>
		<rect id="svg_189_1_" x="605.5" y="116.7" fill="#010101" stroke="#0D0A0A" stroke-miterlimit="10" width="0.6" height="9.6"/>
	</g>
</g>
<text id="SVG_width_mm" transform="matrix(1 0 0 1 332.6931 105.2488)" font-family="'ArialMT'" font-size="19.25">6.59mm</text>
<text id="SVG_table_pre" transform="matrix(1 0 0 1 347.4685 138.2488)" font-family="'ArialMT'" font-size="17.875">59.0%</text>
<text id="SVG_crown_pre" transform="matrix(1 0 0 1 644.2546 176.0613)" font-family="'ArialMT'" font-size="19.25">13.0%</text>
<text id="SVG_crown_mm" transform="matrix(1 0 0 1 644.2546 202.1862)" font-family="'ArialMT'" font-size="19.25">0.86mm</text>
<text id="SVG_pavillion_pre" transform="matrix(1 0 0 1 644.2546 309.8191)" font-family="'ArialMT'" font-size="19.25">43.5%</text>
<text id="SVG_pavillion_mm" transform="matrix(1 0 0 1 644.2546 335.9441)" font-family="'ArialMT'" font-size="19.25">2.85mm</text>
<text id="SVG_girdle_pre" transform="matrix(1 0 0 1 84.2029 224.1814)" font-family="'ArialMT'" font-size="19.25">3.0%</text>
<text id="SVG_girdle_mm" transform="matrix(1 0 0 1 58.551 250.3064)" font-family="'ArialMT'" font-size="19.25">0.21mm</text>
<text id="SVG_culet_mm" transform="matrix(1 0 0 1 313.4841 443.7849)" font-family="'ArialMT'" font-size="19.25">0.14%</text>
<text id="SVG_crown_rounded" transform="matrix(1 0 0 1 583.4586 194.7029)" font-family="'ArialMT'" font-size="19.25">32.5°</text>
<text id="SVG_pavillion_rounded" transform="matrix(1 0 0 1 583.4577 307.03)" font-family="'ArialMT'" font-size="19.25">41.0°</text>
<text id="SVG_total_depth_per" transform="matrix(1 0 0 1 63.5842 324.6287)" font-family="'ArialMT'" font-size="19.25">3.92mm</text>
<text id="SVG_total_depth_mm" transform="matrix(1 0 0 1 63.5842 352.1286)" font-family="'ArialMT'" font-size="19.25">59.5%</text>
<rect x="1757.4" y="354.1" fill="#FFFFFF" width="432.4" height="273.3"/>
<g>
	<polygon fill="none" stroke="#231F20" stroke-width="4" stroke-linejoin="round" stroke-miterlimit="10" points="332.3,420.1 
		400.4,374.8 602.3,229 602.3,218.7 558.8,175.2 488,148.9 234.5,148.9 198.5,172.9 163,214.6 163,228.4 284.3,382.3 	"/>
	<polygon fill="none" stroke="#231F20" stroke-width="4" stroke-linejoin="round" stroke-miterlimit="10" points="332.3,420.1 
		439.7,234.3 439.7,223.6 416.6,178.1 357.4,148.5 296.9,178.1 286.6,225.3 286.6,236.9 317.9,383.6 321.8,411.9 	"/>
	<polygon fill="none" stroke="#231F20" stroke-width="4" stroke-linejoin="round" stroke-miterlimit="10" points="198.5,172.9 
		269,149.3 296.9,178.1 215.4,225.7 	"/>
	
		<polyline fill="none" stroke="#231F20" stroke-width="4" stroke-linecap="round" stroke-linejoin="round" stroke-miterlimit="10" points="
		198.5,172.9 187.5,223.6 187.5,236.9 284.3,382.3 217.1,237.3 319.2,386.2 364.2,235.6 364.2,226.1 416.6,178.1 512.3,223.1 
		512.3,232.1 359.1,374.2 	"/>
	
		<polyline fill="none" stroke="#231F20" stroke-width="4" stroke-linecap="round" stroke-linejoin="round" stroke-miterlimit="10" points="
		163,214.6 187.5,223.6 215.4,225.7 286.6,225.3 364.2,226.1 439.7,223.6 512.3,223.1 565,220.6 602.3,218.7 	"/>
	
		<polyline fill="none" stroke="#231F20" stroke-width="4" stroke-linecap="round" stroke-linejoin="round" stroke-miterlimit="10" points="
		602.3,229 562.4,230 512.3,232.1 439.7,234.3 364.2,235.6 286.6,236.9 217.1,237.3 217.1,225.7 	"/>
	
		<polyline fill="none" stroke="#231F20" stroke-width="4" stroke-linecap="round" stroke-linejoin="round" stroke-miterlimit="10" points="
		163,228.4 187.5,236.9 217.1,237.3 	"/>
	
		<line fill="none" stroke="#231F20" stroke-width="4" stroke-linecap="round" stroke-linejoin="round" stroke-miterlimit="10" x1="296.9" y1="178.1" x2="364.2" y2="226.1"/>
	
		<polyline fill="none" stroke="#231F20" stroke-width="4" stroke-linecap="round" stroke-linejoin="round" stroke-miterlimit="10" points="
		416.6,178.1 449.6,149.8 557.3,175.1 565,220.6 565,229.1 403.3,372 512.3,232.1 512.3,223.1 556.7,176 	"/>
</g>
</svg>
