<?xml version="1.0" encoding="utf-8"?>
<!-- Generator: Adobe Illustrator 18.1.1, SVG Export Plug-In . SVG Version: 6.00 Build 0)  -->
<svg version="1.1" id="Layer_1" xmlns="http://www.w3.org/2000/svg" xmlns:xlink="http://www.w3.org/1999/xlink" x="0px" y="0px"
	 viewBox="0 0 792 612" enable-background="new 0 0 792 612" xml:space="preserve">
<path id="svg_35" fill="none" stroke="#0D0A0A" stroke-linecap="round" stroke-linejoin="round" stroke-miterlimit="10" d="
	M233.9,198.3"/>
<line id="svg_136" fill="none" stroke="#0D0A0A" stroke-width="2" stroke-linecap="round" stroke-linejoin="round" x1="139" y1="220.9" x2="139" y2="415.4"/>
<rect id="svg_137" x="137.2" y="220.6" fill="#EF4966" stroke="#0D0A0A" stroke-miterlimit="10" width="3.8" height="0.6"/>
<rect id="svg_138" x="137.2" y="415.1" fill="#EF4966" stroke="#0D0A0A" stroke-miterlimit="10" width="3.8" height="0.6"/>
<line id="svg_139" fill="none" stroke="#0D0A0A" stroke-width="2" stroke-linecap="round" stroke-linejoin="round" x1="688.4" y1="284.6" x2="688.4" y2="415.4"/>
<rect id="svg_140" x="686.5" y="284.3" fill="#EF4966" stroke="#0D0A0A" stroke-miterlimit="10" width="3.8" height="0.6"/>
<rect id="svg_141" x="686.5" y="415.1" fill="#EF4966" stroke="#0D0A0A" stroke-miterlimit="10" width="3.8" height="0.6"/>
<line id="svg_142" fill="none" stroke="#0D0A0A" stroke-width="2" stroke-linecap="round" stroke-linejoin="round" x1="688.4" y1="220.9" x2="688.4" y2="276"/>
<rect id="svg_143" x="686.5" y="220.6" fill="#EF4966" stroke="#0D0A0A" stroke-miterlimit="10" width="3.8" height="0.6"/>
<rect id="svg_144" x="686.5" y="275.8" fill="#EF4966" stroke="#0D0A0A" stroke-miterlimit="10" width="3.8" height="0.6"/>
<line id="svg_145" fill="none" stroke="#0D0A0A" stroke-width="2" stroke-linecap="round" stroke-linejoin="round" x1="234.2" y1="189.2" x2="594.9" y2="189.2"/>
<rect id="svg_146" x="233.9" y="187.4" fill="#EF4966" stroke="#0D0A0A" stroke-miterlimit="10" width="0.6" height="3.8"/>
<g>
	<g>
		<rect id="svg_147" x="594.7" y="187.4" fill="#EF4966" stroke="#0D0A0A" stroke-miterlimit="10" width="0.6" height="3.8"/>
	</g>
</g>
<g>
	<g>
		
			<line id="svg_188" fill="none" stroke="#0D0A0A" stroke-width="2" stroke-linecap="round" stroke-linejoin="round" x1="143.6" y1="170.3" x2="669.2" y2="170.3"/>
	</g>
</g>
<g>
	<g>
		<rect id="svg_189" x="143.2" y="165.4" fill="#010101" stroke="#0D0A0A" stroke-miterlimit="10" width="0.6" height="9.6"/>
	</g>
</g>
<line id="svg_253" fill="none" stroke="#0D0A0A" stroke-width="2" stroke-linecap="round" stroke-linejoin="round" stroke-miterlimit="10" x1="130.5" y1="270.7" x2="136.4" y2="274.8"/>
<line id="svg_254" fill="none" stroke="#0D0A0A" stroke-width="2" stroke-linecap="round" stroke-linejoin="round" stroke-miterlimit="10" x1="131" y1="289.5" x2="136.4" y2="284.3"/>
<polyline id="svg_255" fill="none" stroke="#0D0A0A" stroke-width="2" stroke-linecap="round" stroke-linejoin="round" stroke-miterlimit="10" points="
	672.7,284.8 677.6,284.8 654,304.8 "/>
<g>
	
		<polyline id="svg_256" fill="none" stroke="#0D0A0A" stroke-width="2" stroke-linecap="round" stroke-linejoin="round" stroke-miterlimit="10" points="
		672.7,276.3 677.6,276.3 654,259.3 	"/>
</g>
<g>
	<g>
		<rect id="svg_189_1_" x="669.2" y="165.5" fill="#010101" stroke="#0D0A0A" stroke-miterlimit="10" width="0.6" height="9.6"/>
	</g>
</g>
<text id="SVG_width_mm" transform="matrix(1 0 0 1 363.8027 154.1015)" font-family="'ArialMT'" font-size="19.25">6.59mm</text>
<text id="SVG_table_pre" transform="matrix(1 0 0 1 378.5781 187.1015)" font-family="'ArialMT'" font-size="17.875">59.0%</text>
<text id="SVG_crown_pre" transform="matrix(1 0 0 1 701.1056 224.9141)" font-family="'ArialMT'" font-size="19.25">13.0%</text>
<text id="SVG_crown_mm" transform="matrix(1 0 0 1 701.1056 251.039)" font-family="'ArialMT'" font-size="19.25">0.86mm</text>
<text id="SVG_pavillion_pre" transform="matrix(1 0 0 1 701.1056 358.6718)" font-family="'ArialMT'" font-size="19.25">43.5%</text>
<text id="SVG_pavillion_mm" transform="matrix(1 0 0 1 701.1056 384.7968)" font-family="'ArialMT'" font-size="19.25">2.85mm</text>
<text id="SVG_girdle_pre" transform="matrix(1 0 0 1 69.835 273.0342)" font-family="'ArialMT'" font-size="19.25">3.0%</text>
<text id="SVG_girdle_mm" transform="matrix(1 0 0 1 44.1826 299.1591)" font-family="'ArialMT'" font-size="19.25">0.21mm</text>
<text id="SVG_culet_mm" transform="matrix(1 0 0 1 376.629 441.7255)" font-family="'ArialMT'" font-size="19.25">0.14%</text>
<text id="SVG_crown_rounded" transform="matrix(1 0 0 1 640.3105 243.5556)" font-family="'ArialMT'" font-size="19.25">32.5°</text>
<text id="SVG_pavillion_rounded" transform="matrix(1 0 0 1 640.3097 355.8828)" font-family="'ArialMT'" font-size="19.25">41.0°</text>
<text id="SVG_total_depth_per" transform="matrix(1 0 0 1 49.2158 373.4814)" font-family="'ArialMT'" font-size="19.25">3.92mm</text>
<text id="SVG_total_depth_mm" transform="matrix(1 0 0 1 49.2158 400.9814)" font-family="'ArialMT'" font-size="19.25">59.5%</text>
<rect x="1699.9" y="354.1" fill="#FFFFFF" width="432.4" height="273.3"/>
<rect x="1072.9" y="166.5" fill="#FFFFFF" stroke="#231F20" stroke-miterlimit="10" width="497.3" height="23.2"/>
<rect x="1183.4" y="283.8" fill="#0D0A0A" width="264.8" height="11.8"/>
<g>
</g>
<g>
	
		<rect x="143.8" y="276.8" fill="none" stroke="#231F20" stroke-width="4" stroke-linecap="round" stroke-linejoin="round" stroke-miterlimit="10" width="524.9" height="7.3"/>
	
		<polygon fill="none" stroke="#231F20" stroke-width="4" stroke-linecap="round" stroke-linejoin="round" stroke-miterlimit="10" points="
		233.6,222.7 594.4,222.7 625.7,239.9 668.6,276.8 668.6,284.1 405.2,414.1 143.8,284.1 143.8,276.8 198,239.9 	"/>
	
		<polyline fill="none" stroke="#231F20" stroke-width="4" stroke-linecap="round" stroke-linejoin="round" stroke-miterlimit="10" points="
		297.1,360.9 210.4,284.5 210.4,276.8 198,239.9 316.4,222.7 333.6,240.3 316.4,277.2 316.4,284.5 405.2,414.1 	"/>
	
		<polyline fill="none" stroke="#231F20" stroke-width="4" stroke-linecap="round" stroke-linejoin="round" stroke-miterlimit="10" points="
		515.3,359.7 603.4,284.5 603.4,276.8 624.4,239.7 497.5,222.7 480.3,240.3 497.5,277.2 497.5,284.5 406.1,413.7 	"/>
	
		<polyline fill="none" stroke="#231F20" stroke-width="4" stroke-linecap="round" stroke-linejoin="round" stroke-miterlimit="10" points="
		406.1,222.3 480.3,240.3 603.4,276.8 603.4,284.5 439.5,366.5 406,283.9 406,276.9 481.2,241.7 	"/>
	
		<polyline fill="none" stroke="#231F20" stroke-width="4" stroke-linecap="round" stroke-linejoin="round" stroke-miterlimit="10" points="
		405.8,222.3 331.6,240.3 208.5,276.8 208.5,284.5 372.3,366.5 406,283.9 406,276.9 330.7,241.7 	"/>
</g>
</svg>
