<?xml version="1.0" encoding="utf-8"?>
<!-- Generator: Adobe Illustrator 18.1.1, SVG Export Plug-In . SVG Version: 6.00 Build 0)  -->
<svg version="1.1" id="Layer_1" xmlns="http://www.w3.org/2000/svg" xmlns:xlink="http://www.w3.org/1999/xlink" x="0px" y="0px"
	 viewBox="0 0 792 612" enable-background="new 0 0 792 612" xml:space="preserve">
<path id="svg_35" fill="none" stroke="#0D0A0A" stroke-linecap="round" stroke-linejoin="round" stroke-miterlimit="10" d="
	M272.4,181.1"/>
<line id="svg_136" fill="none" stroke="#0D0A0A" stroke-width="2" stroke-linecap="round" stroke-linejoin="round" x1="138.1" y1="183.1" x2="138.1" y2="447.9"/>
<rect id="svg_137" x="136.3" y="182.8" fill="#EF4966" stroke="#0D0A0A" stroke-miterlimit="10" width="3.8" height="0.6"/>
<rect id="svg_138" x="136.3" y="447.7" fill="#EF4966" stroke="#0D0A0A" stroke-miterlimit="10" width="3.8" height="0.6"/>
<line id="svg_139" fill="none" stroke="#0D0A0A" stroke-width="2" stroke-linecap="round" stroke-linejoin="round" x1="662.6" y1="255.4" x2="662.6" y2="447.9"/>
<rect id="svg_140" x="660.7" y="255.1" fill="#EF4966" stroke="#0D0A0A" stroke-miterlimit="10" width="3.8" height="0.6"/>
<rect id="svg_141" x="660.7" y="447.7" fill="#EF4966" stroke="#0D0A0A" stroke-miterlimit="10" width="3.8" height="0.6"/>
<line id="svg_142" fill="none" stroke="#0D0A0A" stroke-width="2" stroke-linecap="round" stroke-linejoin="round" x1="662.6" y1="183.1" x2="662.6" y2="245.1"/>
<rect id="svg_143" x="660.7" y="182.8" fill="#EF4966" stroke="#0D0A0A" stroke-miterlimit="10" width="3.8" height="0.6"/>
<rect id="svg_144" x="660.7" y="244.8" fill="#EF4966" stroke="#0D0A0A" stroke-miterlimit="10" width="3.8" height="0.6"/>
<line id="svg_145" fill="none" stroke="#0D0A0A" stroke-width="2" stroke-linecap="round" stroke-linejoin="round" x1="261.6" y1="172" x2="526.2" y2="172"/>
<rect id="svg_146" x="261.3" y="170.2" fill="#EF4966" stroke="#0D0A0A" stroke-miterlimit="10" width="0.6" height="3.8"/>
<g>
	<g>
		<rect id="svg_147" x="526" y="170.2" fill="#EF4966" stroke="#0D0A0A" stroke-miterlimit="10" width="0.6" height="3.8"/>
	</g>
</g>
<g>
	<g>
		
			<line id="svg_188" fill="none" stroke="#0D0A0A" stroke-width="2" stroke-linecap="round" stroke-linejoin="round" x1="175.3" y1="153.1" x2="611.7" y2="153.1"/>
	</g>
</g>
<g>
	<g>
		<rect id="svg_189" x="175" y="148.2" fill="#010101" stroke="#0D0A0A" stroke-miterlimit="10" width="0.6" height="9.6"/>
	</g>
</g>
<line id="svg_253" fill="none" stroke="#0D0A0A" stroke-width="2" stroke-linecap="round" stroke-linejoin="round" stroke-miterlimit="10" x1="129.6" y1="240.6" x2="135.5" y2="244.7"/>
<line id="svg_254" fill="none" stroke="#0D0A0A" stroke-width="2" stroke-linecap="round" stroke-linejoin="round" stroke-miterlimit="10" x1="130.1" y1="260.3" x2="135.5" y2="255.1"/>
<polyline id="svg_255" fill="none" stroke="#0D0A0A" stroke-width="2" stroke-linecap="round" stroke-linejoin="round" stroke-miterlimit="10" points="
	624.6,255.5 629.5,255.5 605.9,275.5 "/>
<g>
	
		<polyline id="svg_256" fill="none" stroke="#0D0A0A" stroke-width="2" stroke-linecap="round" stroke-linejoin="round" stroke-miterlimit="10" points="
		624.6,244.6 629.5,244.6 605.9,227.7 	"/>
</g>
<g>
	<g>
		<rect id="svg_189_1_" x="611.7" y="148.3" fill="#010101" stroke="#0D0A0A" stroke-miterlimit="10" width="0.6" height="9.6"/>
	</g>
</g>
<text id="SVG_width_mm" transform="matrix(1 0 0 1 352.6079 136.8752)" font-family="'ArialMT'" font-size="19.25">6.59mm</text>
<text id="SVG_table_pre" transform="matrix(1 0 0 1 367.3833 169.8751)" font-family="'ArialMT'" font-size="17.875">59.0%</text>
<text id="SVG_crown_pre" transform="matrix(1 0 0 1 675.3237 207.6877)" font-family="'ArialMT'" font-size="19.25">13.0%</text>
<text id="SVG_crown_mm" transform="matrix(1 0 0 1 675.3237 233.8126)" font-family="'ArialMT'" font-size="19.25">0.86mm</text>
<text id="SVG_pavillion_pre" transform="matrix(1 0 0 1 675.3237 367.1877)" font-family="'ArialMT'" font-size="19.25">43.5%</text>
<text id="SVG_pavillion_mm" transform="matrix(1 0 0 1 675.3237 393.3127)" font-family="'ArialMT'" font-size="19.25">2.85mm</text>
<text id="SVG_girdle_pre" transform="matrix(1 0 0 1 68.9371 252.3751)" font-family="'ArialMT'" font-size="19.25">3.0%</text>
<text id="SVG_girdle_mm" transform="matrix(1 0 0 1 43.2847 278.5002)" font-family="'ArialMT'" font-size="19.25">0.21mm</text>
<text id="SVG_culet_mm" transform="matrix(1 0 0 1 365.4342 475.1251)" font-family="'ArialMT'" font-size="19.25">0.14%</text>
<text id="SVG_crown_rounded" transform="matrix(1 0 0 1 596.5093 217.7482)" font-family="'ArialMT'" font-size="19.25">32.5°</text>
<text id="SVG_pavillion_rounded" transform="matrix(1 0 0 1 596.5082 338.6564)" font-family="'ArialMT'" font-size="19.25">41.0°</text>
<text id="SVG_total_depth_per" transform="matrix(1 0 0 1 48.3179 400.8751)" font-family="'ArialMT'" font-size="19.25">3.92mm</text>
<text id="SVG_total_depth_mm" transform="matrix(1 0 0 1 48.3179 428.3752)" font-family="'ArialMT'" font-size="19.25">59.5%</text>
<rect x="1685.4" y="354.1" fill="#FFFFFF" width="432.4" height="273.3"/>
<rect x="1072.9" y="166.5" fill="#FFFFFF" stroke="#231F20" stroke-miterlimit="10" width="497.3" height="23.2"/>
<g>
</g>
<rect x="1183.4" y="283.8" fill="#0D0A0A" width="264.8" height="11.8"/>
<g>
	
		<polygon fill="none" stroke="#231F20" stroke-width="4" stroke-linecap="round" stroke-linejoin="round" stroke-miterlimit="10" points="
		380.4,447.7 407.6,447.7 473.3,401.3 545.4,343 612.1,255.2 612.1,245.4 567.7,209.1 526.2,182.5 261.4,182.5 219.1,209.4 
		175.9,245.4 175.9,255.2 241.6,343 313.2,400.7 	"/>
	
		<line fill="none" stroke="#231F20" stroke-width="4" stroke-linecap="round" stroke-linejoin="round" stroke-miterlimit="10" x1="313.2" y1="400.7" x2="473.3" y2="400.7"/>
	
		<line fill="none" stroke="#231F20" stroke-width="4" stroke-linecap="round" stroke-linejoin="round" stroke-miterlimit="10" x1="241.6" y1="343" x2="546.2" y2="343"/>
	
		<line fill="none" stroke="#231F20" stroke-width="4" stroke-linecap="round" stroke-linejoin="round" stroke-miterlimit="10" x1="175.9" y1="255.2" x2="612.1" y2="255.2"/>
	
		<line fill="none" stroke="#231F20" stroke-width="4" stroke-linecap="round" stroke-linejoin="round" stroke-miterlimit="10" x1="612.1" y1="245.4" x2="175.9" y2="245.4"/>
	
		<line fill="none" stroke="#231F20" stroke-width="4" stroke-linecap="round" stroke-linejoin="round" stroke-miterlimit="10" x1="219.1" y1="209.4" x2="567.7" y2="209.4"/>
	
		<line fill="none" stroke="#231F20" stroke-width="4" stroke-linecap="round" stroke-linejoin="round" stroke-miterlimit="10" x1="241.4" y1="195.4" x2="546" y2="195.4"/>
	
		<polyline fill="none" stroke="#231F20" stroke-width="4" stroke-linecap="round" stroke-linejoin="round" stroke-miterlimit="10" points="
		300.3,182.8 288.6,195.6 278.3,209.4 259.4,244.9 259.4,254.6 302.3,343.2 338.3,401.3 380.4,447.7 	"/>
	
		<polyline fill="none" stroke="#231F20" stroke-width="4" stroke-linecap="round" stroke-linejoin="round" stroke-miterlimit="10" points="
		489,182.8 500.8,195.6 511.1,209.4 529.9,244.9 529.9,254.6 487,343.2 451,401.3 407.6,447.7 	"/>
</g>
</svg>
