<?xml version="1.0" encoding="utf-8"?>
<!-- Generator: Adobe Illustrator 19.2.1, SVG Export Plug-In . SVG Version: 6.00 Build 0)  -->
<svg version="1.1" id="Layer_1" xmlns="http://www.w3.org/2000/svg" xmlns:xlink="http://www.w3.org/1999/xlink" x="0px" y="0px"
	 viewBox="0 0 610 365" style="enable-background:new 0 0 610 365;" xml:space="preserve">
<style type="text/css">
	.st0{fill:#FFFFFF;stroke:#0D0A0A;stroke-miterlimit:10;}
	.st1{fill:none;stroke:#0D0A0A;stroke-width:4;stroke-linecap:round;stroke-linejoin:round;stroke-miterlimit:10;}
	.st2{fill:#EF4966;stroke:#0D0A0A;stroke-miterlimit:10;}
	.st3{fill:none;stroke:#0D0A0A;stroke-width:2;stroke-linecap:round;stroke-linejoin:round;}
	.st4{fill:none;stroke:#0D0A0A;stroke-width:2;stroke-linecap:round;stroke-linejoin:round;stroke-miterlimit:10;}
	.st5{fill:#010101;stroke:#0D0A0A;stroke-miterlimit:10;}
	.st6{font-family:'ArialMT';}
	.st7{font-size:17.7431px;}
	.st8{font-size:16.4757px;}
	.st9{fill:none;stroke:#0D0A0A;stroke-width:3;stroke-miterlimit:10;}
	.st10{fill:none;stroke:#231F20;stroke-width:3;stroke-miterlimit:10;}
</style>
<path id="svg_3" class="st0" d="M450.6,82.6"/>
<path id="svg_35" class="st1" d="M202.8,63.7"/>
<g>
	<rect id="svg_137" x="108.8" y="61.2" class="st2" width="3.5" height="0.6"/>
	<g>
		<line id="svg_136" class="st3" x1="110.6" y1="61.5" x2="110.6" y2="336.7"/>
		<rect id="svg_138" x="108.8" y="336.4" class="st2" width="3.5" height="0.6"/>
	</g>
</g>
<g>
	<line id="svg_139" class="st3" x1="522.8" y1="142.6" x2="522.8" y2="337.2"/>
	<rect id="svg_140" x="521.1" y="142.2" class="st2" width="3.5" height="0.6"/>
	<rect id="svg_141" x="521.1" y="336.9" class="st2" width="3.5" height="0.6"/>
</g>
<g>
	<line id="svg_142" class="st3" x1="522.8" y1="61.4" x2="522.8" y2="119.3"/>
	<g>
		<rect id="svg_143" x="521.1" y="61.2" class="st2" width="3.5" height="0.5"/>
		<rect id="svg_144" x="521.1" y="119.1" class="st2" width="3.5" height="0.5"/>
	</g>
</g>
<g>
	<g>
		<line id="svg_145" class="st3" x1="209.4" y1="55.4" x2="411.1" y2="55.4"/>
		<rect id="svg_146" x="207.6" y="53.7" class="st2" width="0.5" height="3.5"/>
	</g>
	<g>
		<g>
			<rect id="svg_147" x="412.1" y="53.7" class="st2" width="0.5" height="3.5"/>
		</g>
	</g>
</g>
<line id="svg_253" class="st4" x1="99.9" y1="113.8" x2="105.4" y2="117.6"/>
<line id="svg_254" class="st4" x1="100.1" y1="150.7" x2="105.1" y2="145.9"/>
<polyline id="svg_255" class="st4" points="499.1,142.9 503.8,142.9 491.9,168.7 "/>
<g>
	<polyline id="svg_256" class="st4" points="499.3,119.1 503.8,119.1 482.1,103.3 	"/>
</g>
<g>
	<g>
		<g>
			<line id="svg_188" class="st3" x1="122.5" y1="37.9" x2="496.1" y2="37.9"/>
		</g>
	</g>
	<g>
		<g>
			<g>
				<rect id="svg_189" x="122.2" y="34.1" class="st5" width="0.5" height="7.4"/>
			</g>
		</g>
		<g>
			<g>
				<rect id="svg_189_1_" x="496.1" y="34.2" class="st5" width="0.5" height="7.4"/>
			</g>
		</g>
	</g>
</g>
<text id="SVG_width_mm" transform="matrix(1 0 0 1 281.6503 22.9999)" class="st6 st7">6.83mm</text>
<text id="SVG_table_pre" transform="matrix(1 0 0 1 295.2694 53.4169)" class="st6 st8">60%</text>
<text id="SVG_crown_pre" transform="matrix(1 0 0 1 534.5585 93.2695)" class="st6 st7">13.0%</text>
<text id="SVG_crown_mm" transform="matrix(1 0 0 1 534.5585 117.3491)" class="st6 st7">0.86mm</text>
<text id="SVG_pavillion_pre" transform="matrix(1 0 0 1 534.5585 235.2832)" class="st6 st7">43.5%</text>
<text id="SVG_pavillion_mm" transform="matrix(1 0 0 1 534.5585 259.3633)" class="st6 st7">2.98mm</text>
<text id="SVG_girdle_pre" transform="matrix(1 0 0 1 46.8226 117.4584)" class="st6 st7">3.0%</text>
<text id="SVG_girdle_mm" transform="matrix(1 0 0 1 23.1787 153.538)" class="st6 st7">0.21mm</text>
<text id="SVG_culet_mm" transform="matrix(1 0 0 1 288.4725 358.7714)" class="st6 st7">0.23%</text>
<text id="SVG_crown_rounded" transform="matrix(1 0 0 1 472.7841 90.8334)" class="st6 st7">32.5°</text>
<text id="SVG_pavillion_rounded" transform="matrix(1 0 0 1 476.913 204.9852)" class="st6 st7">41.0°</text>
<text id="SVG_total_depth_per" transform="matrix(1 0 0 1 11.9998 266.3339)" class="st6 st7">4.07mm</text>
<text id="SVG_total_depth_mm" transform="matrix(1 0 0 1 11.9998 291.6805)" class="st6 st7">59.6%</text>
<polygon class="st9" points="207,61.2 411.8,61.2 496.6,119.9 496.6,142.5 472.3,196.7 307.9,338.2 148.3,199.7 122.2,144.6 
	122.2,119.9 "/>
<g>
	<path class="st10" d="M212.8,61.2"/>
	<path class="st10" d="M192.1,145.9"/>
	<path class="st10" d="M216,88.3"/>
	<path class="st10" d="M296.8,61.2"/>
</g>
<g>
	<polygon class="st10" points="481.5,176.1 363.6,290.2 459.8,155.7 495,145.9 	"/>
	<line class="st10" x1="401.4" y1="61.2" x2="457" y2="92.4"/>
	<line class="st10" x1="424.6" y1="145.9" x2="381.3" y2="179.1"/>
	<path class="st10" d="M391.6,61.2l11.2,33.4l-91.9,26.1L423.4,132c0.1,0,0.1-0.1,0.1-0.1l-21.4-38.6c-0.2-0.3,0.1-0.6,0.4-0.4
		l55.3,28.1c0.4,0.2,0.8-0.1,0.8-0.5L455.9,93c0-0.2,0.2-0.3,0.4-0.2L495,129c0.1,0.1,0,0.4-0.2,0.3l-36.2-7.9l-35,10.6v8.3l2,5.6
		l33.2,9.8L328.6,293.4l-18.7-92.3l72.3-22l-74.6,159.1"/>
	<line class="st10" x1="318.9" y1="61.2" x2="399.7" y2="88.3"/>
	<line class="st9" x1="307.6" y1="140.4" x2="423.6" y2="140.4"/>
</g>
<path class="st10" d="M137.9,177.1L257,294l-99.3-138.3l-32.4-9c-1.1-0.3-2,0.8-1.5,1.9L137.9,177.1z"/>
<line class="st10" x1="216" y1="61.2" x2="162.4" y2="92.9"/>
<line class="st10" x1="192.8" y1="145.9" x2="236.2" y2="179.1"/>
<path class="st10" d="M225.8,61.2l-11.2,33.4l91.9,26.1L194,132c-0.1,0-0.1-0.1-0.1-0.1l21.4-38.6c0.2-0.3-0.1-0.6-0.4-0.4
	L159.6,121c-0.4,0.2-0.8-0.1-0.8-0.5l3.7-27.5c0-0.2,0.1-0.1,0,0l-40.1,36.1c-0.1,0.1,0,0.4,0.2,0.3l36.2-7.9l35.2,10.7v8.3l-2,5.6
	l-33.2,9.8L289,293.6l18.7-92.3l-72.3-22l73,157.9"/>
<line class="st10" x1="298.5" y1="61.2" x2="217.7" y2="88.3"/>
<line class="st9" x1="309.8" y1="140.4" x2="193.8" y2="140.4"/>
</svg>
