<svg id="Layer_1" data-name="Layer 1" xmlns="http://www.w3.org/2000/svg" xmlns:xlink="http://www.w3.org/1999/xlink" viewBox="0 0 467.8 252.4"><defs><style>.cls-1,.cls-2,.cls-3,.cls-4,.cls-5{fill:none;}.cls-2{stroke:#231f20;}.cls-2,.cls-3{stroke-linejoin:bevel;}.cls-3,.cls-4{stroke:#020202;}.cls-4{stroke-miterlimit:10;}.cls-5{stroke:#0d0a0a;stroke-linecap:round;stroke-linejoin:round;}.cls-6{fill:#0d0a0a;}.cls-16,.cls-18,.cls-7,.cls-9{isolation:isolate;}.cls-8{clip-path:url(#clip-path);}.cls-9{font-size:14.05px;}.cls-16,.cls-18,.cls-9{font-family:ArialMT, Arial;}.cls-10{clip-path:url(#clip-path-2);}.cls-11{clip-path:url(#clip-path-3);}.cls-12{clip-path:url(#clip-path-4);}.cls-13{clip-path:url(#clip-path-5);}.cls-14{clip-path:url(#clip-path-6);}.cls-15{clip-path:url(#clip-path-7);}.cls-16{font-size:11.41px;}.cls-17{clip-path:url(#clip-path-8);}.cls-18{font-size:10.51px;fill:#070606;}.cls-19{clip-path:url(#clip-path-9);}.cls-20{clip-path:url(#clip-path-10);}.cls-21{clip-path:url(#clip-path-11);}</style>
<clipPath id="clip-path" transform="translate(0 0)"><rect class="cls-1" x="18.7" y="59.6" width="32" height="16.61"/>
</clipPath><clipPath id="clip-path-2" transform="translate(0 0)"><rect class="cls-1" y="78.6" width="50.7" height="16.61"/>
</clipPath><clipPath id="clip-path-3" transform="translate(0 0)"><rect class="cls-1" x="0.5" y="176.5" width="50.7" height="16.61"/>
</clipPath><clipPath id="clip-path-4" transform="translate(0 0)"><rect class="cls-1" x="0.5" y="196.5" width="39.8" height="16.61"/>
</clipPath><clipPath id="clip-path-5" transform="translate(0 0)"><rect class="cls-1" x="215.8" width="50.7" height="16.61"/>
</clipPath><clipPath id="clip-path-6" transform="translate(0 0)"><rect class="cls-1" x="417" y="198.3" width="50.7" height="16.61"/>
</clipPath><clipPath id="clip-path-7" transform="translate(0 0)"><rect class="cls-1" x="217.7" y="27.3" width="36.9" height="13.5"/>
</clipPath><clipPath id="clip-path-8" transform="translate(0 0)"><rect class="cls-1" x="222" y="240" width="29.8" height="12.43"/>
</clipPath><clipPath id="clip-path-9" transform="translate(0 0)"><rect class="cls-1" x="373.2" y="125.7" width="24.6" height="12.43"/>
</clipPath><clipPath id="clip-path-10" transform="translate(0 0)"><rect class="cls-1" x="373.2" y="51.6" width="24.6" height="12.43"/>
</clipPath><clipPath id="clip-path-11" transform="translate(0 0)"><rect class="cls-1" x="417" y="65.1" width="50.7" height="16.61"/>
</clipPath></defs><title>Princess</title>
<polygon class="cls-2" points="195.1 211.9 236.7 233.1 281.5 211.9 355.1 149.6 391.2 88.8 391.2 79.1 348.2 50.4 126.3 50.4 82.5 79.1 82.5 88.9 122.9 149.4 195.1 211.9"/><line class="cls-3" x1="236.7" y1="50.4" x2="391.2" y2="79.1"/><line class="cls-3" x1="272.7" y1="216" x2="391.2" y2="88.8"/>
<line class="cls-3" x1="82.5" y1="88.9" x2="236.7" y2="203"/><line class="cls-3" x1="82.5" y1="79.1" x2="236.7" y2="50.4"/>
<line class="cls-3" x1="236.7" y1="203" x2="391.2" y2="88.8"/><line class="cls-3" x1="236.7" y1="181.3" x2="391.2" y2="88.8"/>
<line class="cls-3" x1="82.5" y1="88.9" x2="236.7" y2="181.3"/><line class="cls-3" x1="82.5" y1="88.9" x2="204" y2="216.4"/>
<line class="cls-3" x1="82.4" y1="79.1" x2="391.2" y2="79.1"/><line class="cls-3" x1="391.2" y1="88.8" x2="82.5" y2="88.8"/>
<line class="cls-3" x1="82.5" y1="88.9" x2="236.7" y2="164.5"/><line class="cls-3" x1="236.7" y1="164.5" x2="391.2" y2="88.8"/>
<line class="cls-3" x1="236.7" y1="164.5" x2="236.7" y2="233.2"/><line class="cls-3" x1="148.5" y1="67.2" x2="148.5" y2="50.4"/>
<path class="cls-3" d="M326.8,50.5c0,11.9,0,16.7,0,16.7" transform="translate(0 0)"/><path class="cls-3" d="M148.5,50.4C82.5,78.3,82.5,79.1,82.5,79.1" transform="translate(0 0)"/><path class="cls-3" d="M391.2,79.1C337.3,55,326.8,50.5,326.8,50.5" transform="translate(0 0)"/>
<line class="cls-4" x1="148.5" y1="67.2" x2="326.8" y2="67.2"/><line class="cls-5" x1="70.7" y1="48.3" x2="70.7" y2="229"/>
<rect class="cls-6" x="67.4" y="47.8" width="6.5" height="1"/><rect class="cls-6" x="67.4" y="228.5" width="6.5" height="1"/>
<line class="cls-5" x1="400.9" y1="48.3" x2="400.9" y2="77.5"/><rect class="cls-6" x="397.6" y="47.8" width="6.5" height="1"/>
<rect class="cls-6" x="397.6" y="77" width="6.5" height="1"/><line class="cls-5" x1="127.7" y1="41" x2="346.4" y2="41"/>
<rect class="cls-6" x="127.2" y="37.8" width="1" height="6.5"/><rect class="cls-6" x="345.9" y="37.8" width="1" height="6.5"/>
<line class="cls-5" x1="77.8" y1="23.2" x2="396.9" y2="23.2"/><rect class="cls-6" x="77.3" y="20" width="1" height="6.5"/>
<rect class="cls-6" x="396.4" y="20" width="1" height="6.5"/><line class="cls-5" x1="75.1" y1="75.4" x2="79.5" y2="78.4"/>
<line class="cls-5" x1="75.5" y1="93.6" x2="79.5" y2="89.8"/><line class="cls-5" x1="400.9" y1="91.2" x2="400.9" y2="229.7"/>
<rect class="cls-6" x="397.6" y="90.7" width="6.5" height="1"/><rect class="cls-6" x="397.6" y="229.2" width="6.5" height="1"/>
<g class="cls-7"><g class="cls-8">

<text class="cls-9" transform="translate(18.7 71.6)">0.0%</text>
</g></g><g class="cls-7">
<g class="cls-10">
<text class="cls-9" transform="translate(0 90.7)">0.00mm</text></g>
</g><g class="cls-7"><g class="cls-11">
<text class="cls-9" transform="translate(0.5 188.5)">0.00mm</text></g>
</g><g class="cls-7"><g class="cls-12"><text class="cls-9" transform="translate(0.5 208.6)">00.0%</text></g>
</g><text class="cls-9" transform="translate(417 191.3)">00.5%</text><g class="cls-7"><g class="cls-13">
<text class="cls-9" transform="translate(215.8 12.1)">0.00mm</text></g></g><g class="cls-7">
<g class="cls-14"><text class="cls-9" transform="translate(417 210.4)">0.00mm</text></g>
</g><g class="cls-7"><g class="cls-15"><text class="cls-16" transform="translate(217.7 37.1) scale(1.14 1)">00,0%</text></g>
</g><g class="cls-7"><g class="cls-17"><text class="cls-18" transform="translate(222 249)">0.00%</text></g>
</g><g class="cls-7"><g class="cls-19"><text class="cls-18" transform="translate(373.2 134.7)">00.0°</text></g>
</g><g class="cls-7"><g class="cls-20"><text class="cls-18" transform="translate(373.2 60.6)">00.0°</text></g>
</g><g class="cls-7"><g class="cls-21"><text class="cls-9" transform="translate(417 77.2)">0.00mm</text></g>
</g><text class="cls-9" transform="translate(417 58.1)">00.0%</text>
</svg>