<svg id="Layer_1" data-name="Layer 1" xmlns="http://www.w3.org/2000/svg" viewBox="0 0 799.5 445.3"><defs><style>.cls-1,.cls-2,.cls-5{fill:none;stroke:#000;}.cls-1,.cls-5{stroke-linecap:round;}.cls-1{stroke-linejoin:round;stroke-width:4px;}.cls-2,.cls-5{stroke-miterlimit:10;stroke-width:2px;}.cls-3,.cls-4{isolation:isolate;}.cls-3{font-size:30px;font-family:MyriadPro-Regular, Myriad Pro;}</style></defs>
<title>Cushion</title>
<polygon class="cls-1" points="247.4 91.7 546.8 91.7 650.1 184.4 650.1 194.3 419 393 375.3 393 144.1 194.3 144.1 184.4 247.4 91.7"/>
<line class="cls-1" x1="144.1" y1="184.4" x2="650.1" y2="184.4"/><line class="cls-1" x1="144.1" y1="194.3" x2="650.1" y2="194.3"/>
<polygon class="cls-1" points="247.4 91.7 219.6 133.4 253.7 184.4 305.4 126.1 247.4 91.7"/><polygon class="cls-1" points="546.8 91.7 574.6 133.4 540.5 184.4 488.9 126.1 546.8 91.7"/><polygon class="cls-1" points="397.1 91.7 488.9 126.1 397.1 184.4 305.4 126.1 397.1 91.7"/>
<path class="cls-1" d="M284.5,170.4" transform="translate(-64.9 -37)"/><polygon class="cls-1" points="219.6 133.4 193.5 184.4 144.1 184.4 219.6 133.4"/>
<polygon class="cls-1" points="574.6 133.4 600.8 184.4 650.1 184.4 574.6 133.4"/><line class="cls-1" x1="397.1" y1="184.4" x2="397.1" y2="393"/>
<polygon class="cls-1" points="253.7 194.3 397.1 351.3 540 194.3 457.4 340 419 393 375.3 393 336.4 340 253.7 194.3"/>
<polygon class="cls-1" points="193.5 194.3 336.4 340 144.1 194.3 193.5 194.3"/><polygon class="cls-1" points="600.3 194.3 457.4 340 649.7 194.3 600.3 194.3"/><line class="cls-2" x1="248.4" y1="75" x2="545.8" y2="75"/><rect x="247.4" y="68.8" width="1.9" height="12.48"/>
<rect x="544.9" y="68.8" width="1.9" height="12.48"/><line class="cls-2" x1="128.3" y1="394.4" x2="128.3" y2="93.6"/>
<rect x="122" y="393.4" width="12.5" height="1.92"/><rect x="122" y="92.7" width="12.5" height="1.92"/>
<line class="cls-2" x1="681.7" y1="183.4" x2="681.7" y2="93.6"/><rect x="675.5" y="182.5" width="12.5" height="1.92"/>
<rect x="675.5" y="92.7" width="12.5" height="1.92"/><line class="cls-2" x1="681.7" y1="392.1" x2="681.7" y2="195.3"/>
<rect x="675.5" y="391.1" width="12.5" height="1.92"/><rect x="675.5" y="194.3" width="12.5" height="1.92"/>
<line class="cls-2" x1="145.1" y1="38" x2="649.2" y2="38"/><rect x="144.1" y="31.8" width="1.9" height="12.48"/>
<rect x="648.2" y="31.8" width="1.9" height="12.48"/>
<text class="cls-3" transform="translate(357.7 437.8)">0.00%</text>
<text class="cls-3" transform="translate(341.3 25.1)">0.00 mm</text>
<text class="cls-3" transform="translate(350.3 69)">00.0 %</text>
<text class="cls-3" transform="translate(597.8 280.6)">00.0˚</text>
<text class="cls-3" transform="translate(597.8 122.5)">00.0˚</text>
<g class="cls-4">
<text class="cls-3" transform="translate(690.7 112.5)">00.0 %</text>
<text class="cls-3" transform="translate(690.7 140.5)">0.00 mm</text>
</g>
<g class="cls-4"><text class="cls-3" transform="translate(690.7 280.6)">00.0 %</text>
<text class="cls-3" transform="translate(690.7 308.6)">0.00 mm</text>
</g>
<g class="cls-4">
<text class="cls-3" transform="translate(26.3 351.1)">00.0 %</text>
<text class="cls-3" transform="translate(0 379.1)">0.00 mm</text>
</g>
<g class="cls-4">
<text class="cls-3" transform="translate(41.7 183.1)">0.0 %</text>
<text class="cls-3" transform="translate(0 211.1)">0.00 mm</text>
</g>
<line class="cls-5" x1="111.8" y1="175.1" x2="119.7" y2="183"/>
<line class="cls-5" x1="111.8" y1="202.3" x2="119.7" y2="194.3"/>
</svg>